<svg xmlns="http://www.w3.org/2000/svg" viewBox="0 0 2720.2597 1499.5136"><defs><style>.cls-1{fill:#ebf3fa;}.cls-2{fill:#a8d29f;}.cls-3{fill:#f8fcff;}.cls-4{fill:#79b27f;}.cls-5{fill:#739af0;}.cls-6{fill:#7faaf7;}.cls-7{fill:#f99746;}.cls-8{fill:#2b478b;}.cls-9{fill:#d4dfff;}.cls-10,.cls-17{fill:#aec3ff;}.cls-10{opacity:0.5;}.cls-11{fill:#83affc;}.cls-12{fill:#f9ddbf;}.cls-13{fill:#fff3e9;}.cls-14{fill:#ed9f4a;}.cls-15{fill:#efcdaf;}.cls-16{fill:#e88338;}.cls-18{fill:#1d3f77;}.cls-19{fill:#2a4e96;}.cls-20{fill:#c0d8fb;}.cls-21{fill:#e8945b;}.cls-22{fill:#415da5;}.cls-23{fill:#2c3a64;}.cls-24{fill:#202e51;}.cls-25{fill:#739cf3;}.cls-26{fill:#ffb27d;}.cls-27{fill:#5885d6;}.cls-28{fill:#35488b;}.cls-29{fill:#b84c42;}.cls-30{fill:#aa3e39;}.cls-31{fill:#1d2a4c;}.cls-32{fill:#233862;}</style></defs><g id="Layer_2" data-name="Layer 2"><g id="_лой_1" data-name="‘лой_1"><path class="cls-1" d="M2667.8798,1252.0332l-.04.7304a363.7764,363.7764,0,0,1-8.1396,60.2403c-22.1504,99.9394-79.9297,163.79-94.3399,179.2597-.0098.0098-.0205.0196-.0303.0303-1.9502,2.0996-3.1494,3.2998-3.2998,3.6094-62.6103,0-467.3701.0703-928.6201-.0596-124.3301-.0302-252.7598-.0801-379.7099-.1601-57.6499-.0303-114.9903-.0596-171.5-.0996-41.1499-.0303-81.8599-.0704-121.92-.1006-152.08-.1299-294.90042-.2998-417.39011-.5196-65.5698-.1201-125.3101-.25-177.54-.4101-139.0699-.3906-224.77009-.8906-225.02979-1.5401l-.1499-.4501a.50926.50926,0,0,1-.1402-.2696.03778.03778,0,0,1-.0102-.0303.5533.5533,0,0,0-.1597-.3095c-.3701-.8604-80.4902-111.6602-104.31-263.6709a525.86614,525.86614,0,0,1-5.7901-111.5293v-.6104c8.3399-143.1699,80.8399-304.5302,302.41019-441.4799,211.7197-131.0401-13.3501-217.48,155-363.3799,193.50969-167.4302,404.77981,17.8999,619.97991-58.0904,37.92-13.4897,76.1397-35.0297,114.3599-68.0898a413.16737,413.16737,0,0,1,70.21-48.9898c3.9497-2.27,7.7397-4.3999,11.6801-6.3701a490.71334,490.71334,0,0,1,47.0196-21.3803c10.7597-4.25,21.8301-8.19,33.0605-11.8296a551.52578,551.52578,0,0,1,54.8994-15.0103,713.57714,713.57714,0,0,1,81.8907-13.5q18.2094-2.0544,36.8593-3.1899c227.75-14.3599,482.5997,61.5298,627.5508,175.5801q12.05865,9.4797,23.0694,19.31c3.04,2.7197,7.2402,6.6699,12.2002,11.7798,33.83,34.8599,102.7197,123.5801,74.2793,243.5503a275.69968,275.69968,0,0,1-9.4795,31.3701,322.20322,322.20322,0,0,1-21.9502,47.0996c-14.0996,25.02-11.9795,49.5903.7597,74.4702l.1407.1499h.0097q1.0503,2.00985,2.1904,4.0201a157.7872,157.7872,0,0,0,9.0792,14.1q2.8812,4.0503,6.1103,8.0801c.5303.6699,1.0703,1.3399,1.6201,2.02,1.0996,1.3501,2.2207,2.69,3.3701,4.0401,0,0-.0097,0,0,.0098.92,1.08,1.8506,2.1499,2.7998,3.2299.9405,1.0801,1.9004,2.1602,2.8907,3.25.9795,1.0801,1.9697,2.1499,2.9795,3.23q1.5,1.62015,3.0595,3.25,1.5615,1.62015,3.1504,3.2402,1.5909,1.6194,3.2305,3.2398h.0098c18.2998,18.1699,23.3496,41.0801,28.0898,67.8496,1.8506,10.4307,3.6504,21.46,6.1797,33.0107.1103.5098.2305,1.0293.3398,1.5498a258.13914,258.13914,0,0,0,8.5811,30.2696c.1689.5107.3594,1.0303.5498,1.5508a213.73435,213.73435,0,0,0,12.4199,27.9697c.4697.8896.9492,1.7803,1.4492,2.6699v.0098c.3809.7099.7705,1.4101,1.1807,2.1201.29.5205.5801,1.0303.8799,1.5498.5.8799,1.0205,1.7598,1.5498,2.6406l.0107.0196c.21.3603.4297.7402.6699,1.1103,3.6397,6.0693,7.75,12.2295,12.3897,18.4697q3.02925,4.11045,6.3896,8.2696c11.96,14.8105,26.96,30.08,45.92,45.7207,24.9804,20.6201,56.8505,41.8994,97.7099,63.7002q9.75,5.20455,18.7901,10.5498c56.8007,33.5498,92.3906,70.83,105.1201,112.8994,1.7998,5.9404,4.8398,17.5508,7.7705,31.5C2664.6806,1204.6631,2668.8906,1231.5635,2667.8798,1252.0332Z"/><path class="cls-2" d="M2667.7802,1252.0136c.0293.25.0401.5.0596.75a363.7764,363.7764,0,0,1-8.1396,60.2403l-112.4004,17.6299-23.1993,3.6396-13.2002,2.0703-91.4501,14.3496-8.1797,1.2803-18.3907,2.8897-4.7793.75h-.0302s-3.9405.4599-10.7803,1.1103c-.5703.0596-1.1699.1104-1.7803.1699-4.5498.42-10.1894.9102-16.6592,1.4004-2.4306.1895-4.9804.3692-7.6308.5498-.5.0303-1,.0694-1.5098.0996q-5.56485.375-11.6601.71c-8.3594.4502-17.3799.8398-26.7696,1.0703-3.6504.0899-7.3603.1602-11.0996.21-1.9511.0205-3.9209.0302-5.8906.0302q-3.55515.0147-7.1397-.0097c-3.5302-.0205-7.08-.0801-10.6201-.1709-2.5996-.0596-5.2099-.1397-7.8007-.2295q-5.4288-.2109-10.8194-.5303c-.5498-.0303-1.1006-.0693-1.6504-.1103-1.6699-.0996-3.3398-.209-5-.3399-8.2392-.6191-16.2802-1.4697-23.9297-2.5996-1.29-.1904-2.5595-.3896-3.8203-.5996-28.7695-4.7002-51.2392-13.6699-56.4092-29.7305-4.7002-14.7099,5.459-35.6396,38.9795-64.75q8.37015-7.2597,17.4297-13.9101c38.9004-28.5996,86.7901-48.8701,136.9698-63.1797q3.12-.8994,6.25-1.75.48045-.13485.9609-.2705c.5693-.1494,1.1396-.3096,1.7099-.46,1.1299-.3096,2.2598-.6094,3.3799-.8994q2.96925-.79545,5.9493-1.5498,15.03075-3.84075,30.1806-7.0107,3.81015-.81015,7.6201-1.5694c1.1895-.2402,2.3799-.4804,3.5596-.7099q1.23045-.25635,2.46-.4805c1.25-.2402,2.5-.4795,3.75-.71a1029.21292,1029.21292,0,0,1,121-15c42.1308-2.8398,78.9707-3.0703,105.1201-2.6103,3.0205,7.3008,5.6006,18.4306,7.7705,31.5C2663.6201,1203.8135,2666.08,1229.1533,2667.7802,1252.0136Z"/><path class="cls-3" d="M1405.7646,306.8115s32.3379-66.877,109.668-59.4463c0,0,112.2685-111.4668,231.9892-14.8618,0,0,127.2618-23.9365,221.5088,20.7251,62.8379,29.7773,83.5918,61.0142,83.5918,61.0142Z"/><path class="cls-3" d="M1292.542,901.833s43.6601-75.6895,148.0644-67.2803c0,0,151.5772-126.1538,313.2148-16.8193,0,0,171.8194-27.0908,299.0645,23.456,84.8379,33.7002,112.8594,69.0537,112.8594,69.0537Z"/><path class="cls-4" d="M2011.9599,567.855s-33.0205-56.584-111.8691-42.5738c-78.8477,14.0108-57.8653,105.1123-101.5,147.9356-43.6338,42.8232-81.6807,80.9819-62.9492,141.4775,18.7304,60.4961-80.752,73.4297-80.4629,164.7852.289,91.3564,21.5449,145.2031,143.8496,152.3125,122.3047,7.1103,317.9355-25.208,344.4277-62.0567,26.4922-36.8496,22.0361-117.749-44.4785-220.9795-66.5137-103.2304-5.7422-112.4926-50.1943-172.2705C2004.33,616.707,2035.622,592.4741,2011.9599,567.855Z"/><path class="cls-3" d="M525.28409,473.375s28.7085-49.7686,97.35839-44.2388c0,0,99.6675-82.9507,205.95022-11.0596,0,0,112.9776-17.813,196.646,15.4234,55.7842,22.1592,74.2095,45.4053,74.2095,45.4053Z"/><polygon class="cls-5" points="1443.373 1329.605 1420.165 1329.605 1425.161 671.526 1436.927 671.526 1443.373 1329.605"/><polygon class="cls-6" points="1429.599 675.028 1260.833 819.54 1195.241 875.71 1190.279 870.696 1248.354 806.288 1343.486 700.788 1418.671 661.397 1429.599 675.028"/><polygon class="cls-7" points="1260.833 819.54 1195.241 875.71 1190.279 870.696 1248.354 806.288 1260.833 819.54"/><polygon class="cls-6" points="1441.057 665.289 1424.587 671.141 1341.848 460.179 1311.931 383.902 1318.301 380.863 1358.441 453.879 1428.521 581.339 1441.057 665.289"/><polygon class="cls-7" points="1358.441 453.879 1341.848 460.179 1311.931 383.902 1318.301 380.863 1358.441 453.879"/><polygon class="cls-6" points="1739.453 676.707 1629.327 684.323 1511.219 692.488 1429.77 668.591 1431.383 651.192 1624.289 662.751 1739.366 669.644 1739.453 676.707"/><polygon class="cls-7" points="1739.453 676.707 1625.389 684.595 1624.289 662.751 1739.366 669.644 1739.453 676.707"/><path class="cls-8" d="M1430.6582,648.9741a15.14993,15.14993,0,1,0,14.2168,16.0293A15.15022,15.15022,0,0,0,1430.6582,648.9741Z"/><path class="cls-9" d="M654.04288,1491.7939H1228.2002l239.3515-.1562h432.8516s.2519-.4346.7383-1.3047c.3476-.6172.8173-1.4512,1.4257-2.5127l.2344-.3125v-.1563s.2354-.166.2354-.3222a37.19029,37.19029,0,0,0,2.6259-4.4424,27.66459,27.66459,0,0,1,1.6778-2.7041v-.3213l.2344-.1572c3.2783-5.668,7.3466-13.0498,12.0419-21.9698.4258-.8085.8516-1.6259,1.2862-2.4521,2.3388-6.7373,4.9121-14.2842,7.6513-22.5957,6.5118-20.1709,13.9805-44.793,21.2832-72.5889,2.8604-10.9629,5.7208-22.3955,8.4249-34.3154,1.5908-6.877,3.1904-14.041,4.7207-21.2754q.66495-3.18165,1.3125-6.3633c2.8086-13.5459,5.4521-27.5,7.8339-41.7588,4.6778-27.917,8.3731-57.0078,10.4512-86.4902-185.918,9.5811-544.3027,34.8027-813.875,95.0107-380.3813,84.9512-474.38282,98.6709-635.52151,113.9112C443.00779,1387.0459,545.90429,1443.6191,654.04288,1491.7939Z"/><path class="cls-9" d="M895.8212,1399.7881s616.0684-187.6348,771.1885-201.2246c155.1211-13.5889,6.5205,18.1718,6.5205,18.1718s-421.6162,109.6778-519.6132,156.4541C946.6733,1472.1103,895.8212,1399.7881,895.8212,1399.7881Z"/><path class="cls-9" d="M1081.9023,1486.4248s513.4443-235.8252,652.3809-274.1445c138.9365-38.3204,8.956,15.2451,8.956,15.2451s-405.3994,211.3984-490.3232,264.7705C1240.6245,1500.0215,1081.9023,1486.4248,1081.9023,1486.4248Z"/><path class="cls-10" d="M1216.3339,735.9331l-82.5019,10.6152-82.5025,10.7671-50.8076-11.6777a10.70279,10.70279,0,0,1-5.7612,4.854l3.6396,469.6909a58.49562,58.49562,0,0,0-15.166,10.6152l2.8804-477.5771L875.0986,860.4453l-45.19432,43.5264-3.7915-3.336,39.43312-49.29,64.4555-80.6821,50.0469-30.1802c-.1519-.1519-.1519-.1519-.1519-.3037a11.44487,11.44487,0,0,1,2.1231-6.3702L918.3232,595.9511,893.2988,541.959l4.3974-2.5772,32.3052,51.2598,56.417,89.4795,10.7671,50.6538h218.8447Z"/><polygon class="cls-5" points="2149.802 1302.497 2120.247 1302.497 2126.609 380.576 2141.592 380.576 2149.802 1302.497"/><polygon class="cls-11" points="2129.112 351.199 2255.978 98.297 2305.283 0 2313.583 3.44 2277.166 107.702 2217.509 278.485 2148.665 361.814 2129.112 351.199"/><polygon class="cls-7" points="2255.978 98.297 2305.283 0 2313.583 3.44 2277.166 107.702 2255.978 98.297"/><polygon class="cls-11" points="2120.464 368.285 2136.913 353.291 2338.103 560.164 2410.847 634.963 2404.867 641.672 2321.728 575.745 2176.587 460.664 2120.464 368.285"/><polygon class="cls-7" points="2321.728 575.745 2338.103 560.164 2410.847 634.963 2404.867 641.672 2321.728 575.745"/><polygon class="cls-11" points="1764.499 502.052 1890.036 438.795 2024.675 370.956 2132.087 358.841 2138.774 380.064 1906.59 461.636 1768.083 510.301 1764.499 502.052"/><polygon class="cls-7" points="1764.499 502.052 1894.525 436.533 1906.59 461.636 1768.083 510.301 1764.499 502.052"/><path class="cls-8" d="M2140.7187,382.3105a19.29247,19.29247,0,1,0-24.5967-11.8071A19.293,19.293,0,0,0,2140.7187,382.3105Z"/><path class="cls-2" d="M1699.1347,1353.0937s-123.9883-36.8564-196.582,8.3086c-72.5938,45.1651-29.6514,97.1475-115.5352,92.628-85.8838-4.5206-128.8256-8.8633-133.3457,41.9003h379.6953Z"/><rect class="cls-12" x="1806.7724" y="910.7187" width="416.7422" height="584.3213"/><path class="cls-13" d="M2547.3027,926.2666v568.7256h-323.794V910.6455h309.6905C2538.0537,915.8017,2542.7539,920.957,2547.3027,926.2666Z"/><path class="cls-14" d="M2304.1904,719.8559l-32.9082,67.7915-14.5586,29.877-.4561,1.2148-.6074,1.0625-.4551.9082-.7568,1.5166-.3047.7588-14.4082,29.5733-.7578,1.5185-1.8193,3.9424-25.6299,52.626-5.916,12.2832-8.3399,16.9863-4.3974,9.1006H1778.083l28.664-37.1572.9092-1.2129,186.542-241.4434.1523-.1518h16.3809l252.9678-.9092C2272.6484,685.2773,2286.7509,702.5683,2304.1904,719.8559Z"/><polygon class="cls-12" points="2223.515 946.263 2223.515 994.855 1806.772 1012.464 1806.772 949.084 1794.44 949.084 2010.714 668.989 2223.515 946.263"/><path class="cls-15" d="M2005.7255,808.5234h8.7139a51.8496,51.8496,0,0,1,51.8496,51.8496V998.2959a0,0,0,0,1,0,0H1952.1357a0,0,0,0,1,0,0V862.1132A53.5898,53.5898,0,0,1,2005.7255,808.5234Z"/><polygon class="cls-7" points="2585.295 964.636 2215.851 964.636 2197.197 939.915 2175.205 910.646 2002.163 679.969 1994.124 669.202 1993.214 667.99 2362.659 667.99 2363.569 669.202 2371.606 679.969 2544.651 910.646 2566.641 939.915 2585.295 964.636"/><polygon class="cls-14" points="1965.495 1027.599 1868.283 1227.741 1572.946 1227.741 1726.921 1028.329 1965.495 1027.599"/><polygon class="cls-12" points="1974.345 1027.599 1877.132 1227.741 1581.796 1227.741 1735.771 1028.329 1974.345 1027.599"/><polygon class="cls-12" points="1876.487 1227.739 1876.487 1494.487 1581.8 1495.065 1581.8 1227.739 1876.487 1227.739"/><rect class="cls-13" x="1876.4873" y="1227.7392" width="249.5429" height="266.7481"/><polygon class="cls-7" points="2153.453 1239.575 1885.378 1239.575 1726.917 1028.325 1806.771 1028.339 1990.386 1028.378 2153.453 1239.575"/><path class="cls-15" d="M1712.9892,1139.4385a13.93265,13.93265,0,1,1,13.9317,13.9335A13.93153,13.93153,0,0,1,1712.9892,1139.4385Z"/><polygon class="cls-16" points="2153.453 1239.575 2102.575 1239.575 1806.771 1028.339 1990.386 1028.378 2153.453 1239.575"/><polygon class="cls-8" points="2286.731 918.915 2489.554 918.915 2382.561 787.699 2179.739 787.699 2286.731 918.915"/><polygon class="cls-17" points="2207.362 822.261 2410.185 822.261 2408.927 820.718 2206.105 820.718 2207.362 822.261"/><polygon class="cls-17" points="2334.886 787.696 2441.879 918.914 2443.422 918.914 2336.429 787.696 2334.886 787.696"/><polygon class="cls-17" points="2281.147 787.696 2388.142 918.914 2389.685 918.914 2282.69 787.696 2281.147 787.696"/><polygon class="cls-17" points="2229.438 787.696 2336.432 918.914 2337.975 918.914 2230.981 787.696 2229.438 787.696"/><polygon class="cls-17" points="2233.864 854.079 2436.687 854.079 2435.428 852.536 2232.606 852.536 2233.864 854.079"/><polygon class="cls-17" points="2261.851 888.401 2464.672 888.401 2463.413 886.858 2260.592 886.858 2261.851 888.401"/><polygon class="cls-17" points="2368.645 827.916 2369.812 821.597 2358.339 815.276 2357.172 821.597 2368.645 827.916"/><polygon class="cls-17" points="2315.485 827.916 2316.652 821.597 2305.179 815.276 2304.013 821.597 2315.485 827.916"/><polygon class="cls-17" points="2263.005 827.916 2264.171 821.597 2252.698 815.276 2251.532 821.597 2263.005 827.916"/><polygon class="cls-17" points="2394.502 859.627 2395.669 853.308 2384.195 846.987 2383.028 853.308 2394.502 859.627"/><polygon class="cls-17" points="2341.343 859.627 2342.509 853.308 2331.036 846.987 2329.869 853.308 2341.343 859.627"/><polygon class="cls-17" points="2288.861 859.627 2290.028 853.308 2278.556 846.987 2277.389 853.308 2288.861 859.627"/><polygon class="cls-17" points="2422.487 893.949 2423.654 887.63 2412.182 881.309 2411.015 887.63 2422.487 893.949"/><polygon class="cls-17" points="2369.328 893.949 2370.495 887.63 2359.022 881.309 2357.855 887.63 2369.328 893.949"/><polygon class="cls-17" points="2316.848 893.949 2318.015 887.63 2306.541 881.309 2305.374 887.63 2316.848 893.949"/><polygon class="cls-8" points="1903.894 1198.889 2087.673 1198.889 1990.726 1079.992 1806.947 1079.992 1903.894 1198.889"/><polygon class="cls-17" points="1831.978 1111.309 2015.757 1111.309 2014.616 1109.91 1830.837 1109.91 1831.978 1111.309"/><polygon class="cls-17" points="1947.526 1079.989 2044.475 1198.887 2045.873 1198.887 1948.925 1079.989 1947.526 1079.989"/><polygon class="cls-17" points="1898.834 1079.989 1995.782 1198.887 1997.181 1198.887 1900.232 1079.989 1898.834 1079.989"/><polygon class="cls-17" points="1851.98 1079.989 1948.928 1198.887 1950.326 1198.887 1853.378 1079.989 1851.98 1079.989"/><polygon class="cls-17" points="1855.99 1140.14 2039.77 1140.14 2038.63 1138.741 1854.851 1138.741 1855.99 1140.14"/><polygon class="cls-17" points="1881.349 1171.239 2065.128 1171.239 2063.987 1169.841 1880.209 1169.841 1881.349 1171.239"/><polygon class="cls-17" points="1978.117 1116.433 1979.174 1110.707 1968.778 1104.98 1967.721 1110.707 1978.117 1116.433"/><polygon class="cls-17" points="1929.948 1116.433 1931.006 1110.707 1920.61 1104.98 1919.553 1110.707 1929.948 1116.433"/><polygon class="cls-17" points="1882.395 1116.433 1883.452 1110.707 1873.057 1104.98 1871.999 1110.707 1882.395 1116.433"/><polygon class="cls-17" points="2001.546 1145.167 2002.603 1139.44 1992.207 1133.714 1991.149 1139.44 2001.546 1145.167"/><polygon class="cls-17" points="1953.378 1145.167 1954.435 1139.44 1944.039 1133.714 1942.981 1139.44 1953.378 1145.167"/><polygon class="cls-17" points="1905.824 1145.167 1906.882 1139.44 1896.485 1133.714 1895.428 1139.44 1905.824 1145.167"/><polygon class="cls-17" points="2026.904 1176.267 2027.961 1170.54 2017.565 1164.813 2016.509 1170.54 2026.904 1176.267"/><polygon class="cls-17" points="1978.736 1176.267 1979.793 1170.54 1969.397 1164.813 1968.34 1170.54 1978.736 1176.267"/><polygon class="cls-17" points="1931.183 1176.267 1932.239 1170.54 1921.844 1164.813 1920.786 1170.54 1931.183 1176.267"/><path class="cls-2" d="M835.76018,1491.7939c-.06.1699-.1201.3301-.1802.5H140.0302a.03778.03778,0,0,1-.0102-.0303.5533.5533,0,0,0-.1597-.3095c-.3701-.8604-80.4902-111.6602-104.31-263.6709,17.4096-6.6895,78.8798-27.4697,165.35979-25.2197q5.22.1347,10.5601.3906a512.949,512.949,0,0,1,104.31,15.8095c1.3101.3399,2.6299.6797,3.9502,1.0303q.55455.1494,1.1099.2998c2.6401.71,5.2798,1.4395,7.9399,2.2002,2.98.8496,5.96,1.7295,8.9698,2.6397,1.0703.33,2.1499.6601,3.2304.9902q5.96925,1.85895,12.0098,3.8897c46.98,15.8105,76.1299,32.8496,96.4199,49.3203q.62985.5097,1.2603,1.0195a207.16966,207.16966,0,0,1,24.0395,23.5098q2.71515,3.09075,5.23,6.0908c2.0801,2.4892,4.0801,4.9297,6.0405,7.3193,6.5699,8.0205,12.6397,15.4199,19.7598,21.8809,19.6396,17.8691,47.25,28.6699,115.33009,25.959q18.31485-.734,35.0298-.3594C802.49018,1368.1035,858.1601,1430.8437,835.76018,1491.7939Z"/><path class="cls-2" d="M2667.8798,1252.0332c-.0293-.0098-.0703-.0098-.0996-.0196a733.95553,733.95553,0,0,0-120.4804-13.29,773.36279,773.36279,0,0,0-106.67,4.1504c-1.3593.1494-2.7295.2998-4.0996.4492-4.0205.4707-8.0703.96-12.1504,1.5q-13.35045,1.7403-27.0595,4.0508a.01928.01928,0,0,1-.0303,0c-2.7197.46-5.4199.9297-8.1602,1.4297q-4.3944.77925-8.8203,1.6396-9.47895,1.8297-19.1191,3.96-4.23045.93015-8.4902,1.9404c-2.8399.6494-5.6797,1.3399-8.5401,2.0401q-5.18985,1.28895-10.4101,2.6494h-.0098c-1.0801.29-2.1699.5801-3.25.8701h-.0107q-4.78425,1.29045-9.5997,2.6504-19.45455,5.50485-39.2695,12.3701c-21.6601,7.4795-40.9004,14.8496-58.1006,22.0303-21.8291,9.0898-40.3799,17.8799-56.4092,26.1894-15.83,8.1797-29.2705,15.9502-41.0703,23.2002-63.9199,39.2803-79.6601,63.5196-166.8496,56.7295q-11.65575-.8847-22.3408-.7295c-23.3603.2998-43.3398,4.0694-60.3496,9.8799-34.1006,11.6397-56.25,31.5098-69.7197,48.0899-11.1006,13.6601-16.3203,25.08-17.4903,27.8203-.1797.4101-.2597.6298-.2597.6298h776.3398c14.4102-15.4697,72.1895-79.3203,94.3399-179.2597a363.88238,363.88238,0,0,0,8.1396-60.2403Z"/><path class="cls-3" d="M389.52729,837.3193s16.7603-31.3496,56.83941-27.8662c0,0,58.18749-52.2505,120.23729-6.9668,0,0,65.958-11.2197,114.80509,9.7148,32.5679,13.9581,43.3247,28.6006,43.3247,28.6006Z"/><path class="cls-3" d="M1014.9594,567.1416s13.8789-29.8135,47.0684-26.5005c0,0,48.1846-49.6909,99.5674-6.6255,0,0,54.6196-10.6704,95.0698,9.2393,26.9692,13.2739,35.877,27.1992,35.877,27.1992Z"/><polygon class="cls-18" points="430.73 1487.434 470.34 1486.941 562.85 1101.464 523.239 1101.957 430.73 1487.434"/><path class="cls-18" d="M365.292,1496.0127h177.6298a18.81733,18.81733,0,0,0-18.8173-18.8174H384.10929a18.81733,18.81733,0,0,0-18.8173,18.8174Z"/><polygon class="cls-18" points="775.623 1317.536 758.561 1231.999 758.561 1231.999 758.525 1231.818 701.748 947.166 149.886 947.245 223.761 1317.616 328.585 1317.601 328.585 1317.601 329.57 1317.601 446.883 1317.584 447.241 1317.584 447.241 1317.584 564.04 1317.567 564.841 1317.566 564.841 1317.566 681.385 1317.55 681.385 1317.55 682.441 1317.55 682.441 1317.55 775.623 1317.536"/><polygon class="cls-19" points="785.075 1310.214 233.213 1310.292 159.338 947.244 711.201 947.166 785.075 1310.214"/><polygon class="cls-20" points="339.093 1310.277 338.037 1310.277 264.361 948.205 265.417 948.205 339.093 1310.277"/><polygon class="cls-20" points="456.693 1310.261 455.637 1310.261 381.961 948.188 383.017 948.188 456.693 1310.261"/><polygon class="cls-20" points="574.293 1310.244 573.237 1310.244 499.561 948.172 500.617 948.172 574.293 1310.244"/><polygon class="cls-20" points="691.893 1310.227 690.837 1310.227 617.161 948.155 618.217 948.155 691.893 1310.227"/><polygon class="cls-20" points="728.733 1033.325 176.871 1033.403 176.669 1032.412 728.531 1032.334 728.733 1033.325"/><polygon class="cls-20" points="748.373 1129.848 196.511 1129.926 196.309 1128.934 748.172 1128.855 748.373 1129.848"/><polygon class="cls-20" points="768.014 1226.368 216.152 1226.446 215.95 1225.454 767.812 1225.376 768.014 1226.368"/><polygon class="cls-20" points="284.293 1043.565 270.761 1032.895 279.95 1022.221 293.482 1032.892 284.293 1043.565"/><polygon class="cls-20" points="304.035 1140.583 290.502 1129.912 299.691 1119.238 313.224 1129.909 304.035 1140.583"/><polygon class="cls-20" points="402.421 1043.548 388.889 1032.878 398.078 1022.204 411.61 1032.875 402.421 1043.548"/><polygon class="cls-20" points="422.163 1140.565 408.631 1129.896 417.819 1119.222 431.351 1129.893 422.163 1140.565"/><polygon class="cls-20" points="520.021 1043.531 506.489 1032.861 515.678 1022.187 529.21 1032.858 520.021 1043.531"/><polygon class="cls-20" points="636.565 1043.515 623.033 1032.845 632.222 1022.171 645.754 1032.842 636.565 1043.515"/><polygon class="cls-20" points="323.574 1236.607 310.042 1225.936 319.231 1215.264 332.763 1225.934 323.574 1236.607"/><polygon class="cls-20" points="441.702 1236.591 428.17 1225.92 437.359 1215.247 450.891 1225.917 441.702 1236.591"/><polygon class="cls-20" points="559.302 1236.574 545.77 1225.903 554.959 1215.23 568.491 1225.9 559.302 1236.574"/><polygon class="cls-20" points="675.847 1236.558 662.314 1225.888 671.503 1215.214 685.035 1225.884 675.847 1236.558"/><polygon class="cls-20" points="656.307 1140.533 642.775 1129.862 651.964 1119.188 665.496 1129.859 656.307 1140.533"/><polygon class="cls-20" points="539.763 1140.549 526.23 1129.879 535.419 1119.205 548.952 1129.876 539.763 1140.549"/><polygon class="cls-18" points="1005.186 1490.124 1032.382 1489.784 1095.896 1225.126 1068.701 1225.465 1005.186 1490.124"/><path class="cls-18" d="M960.2578,1496.0127h121.957a12.91973,12.91973,0,0,0-12.9199-12.919H973.1777a12.91966,12.91966,0,0,0-12.9199,12.919Z"/><polygon class="cls-18" points="1241.981 1373.476 1230.267 1314.748 1230.267 1314.748 1230.243 1314.624 1191.261 1119.188 812.366 1119.243 863.086 1373.53 935.056 1373.52 935.056 1373.52 935.733 1373.52 1016.276 1373.508 1016.522 1373.508 1016.522 1373.508 1096.714 1373.497 1097.263 1373.496 1097.263 1373.496 1177.28 1373.485 1177.28 1373.485 1178.004 1373.485 1178.004 1373.484 1241.981 1373.476"/><polygon class="cls-19" points="1248.471 1368.448 869.576 1368.502 818.856 1119.242 1197.75 1119.188 1248.471 1368.448"/><polygon class="cls-20" points="942.271 1368.491 941.546 1368.492 890.962 1119.902 891.687 1119.902 942.271 1368.491"/><polygon class="cls-20" points="1023.012 1368.48 1022.287 1368.48 971.703 1119.891 972.428 1119.891 1023.012 1368.48"/><polygon class="cls-20" points="1103.753 1368.469 1103.028 1368.469 1052.444 1119.879 1053.169 1119.879 1103.753 1368.469"/><polygon class="cls-20" points="1184.494 1368.457 1183.769 1368.458 1133.185 1119.868 1133.91 1119.868 1184.494 1368.457"/><polygon class="cls-20" points="1209.787 1178.344 830.893 1178.397 830.754 1177.716 1209.649 1177.663 1209.787 1178.344"/><polygon class="cls-20" points="1223.272 1244.613 844.378 1244.667 844.239 1243.985 1223.134 1243.933 1223.272 1244.613"/><polygon class="cls-20" points="1236.757 1310.882 857.862 1310.935 857.724 1310.255 1236.618 1310.201 1236.757 1310.882"/><polygon class="cls-20" points="904.646 1185.374 895.356 1178.048 901.665 1170.72 910.956 1178.046 904.646 1185.374"/><polygon class="cls-20" points="918.201 1251.983 908.91 1244.657 915.219 1237.329 924.51 1244.655 918.201 1251.983"/><polygon class="cls-20" points="985.75 1185.362 976.459 1178.036 982.769 1170.708 992.059 1178.034 985.75 1185.362"/><polygon class="cls-20" points="999.304 1251.972 990.014 1244.646 996.322 1237.317 1005.613 1244.644 999.304 1251.972"/><polygon class="cls-20" points="1066.491 1185.351 1057.201 1178.024 1063.509 1170.696 1072.8 1178.022 1066.491 1185.351"/><polygon class="cls-20" points="1146.508 1185.34 1137.217 1178.014 1143.526 1170.685 1152.816 1178.012 1146.508 1185.34"/><polygon class="cls-20" points="931.616 1317.912 922.325 1310.586 928.634 1303.258 937.925 1310.584 931.616 1317.912"/><polygon class="cls-20" points="1012.72 1317.9 1003.429 1310.574 1009.738 1303.246 1019.028 1310.572 1012.72 1317.9"/><polygon class="cls-20" points="1093.461 1317.889 1084.17 1310.562 1090.479 1303.234 1099.77 1310.56 1093.461 1317.889"/><polygon class="cls-20" points="1173.477 1317.878 1164.186 1310.552 1170.495 1303.224 1179.786 1310.55 1173.477 1317.878"/><polygon class="cls-20" points="1160.062 1251.949 1150.771 1244.623 1157.08 1237.295 1166.371 1244.621 1160.062 1251.949"/><polygon class="cls-20" points="1080.045 1251.961 1070.755 1244.635 1077.063 1237.307 1086.355 1244.633 1080.045 1251.961"/><path class="cls-21" d="M1582.4043,1401.1836l9.0156-1.7588s-21.5488-85.2188-18.5938-92.2559c2.3926-5.8398,27.2305-10.0615,39.4043-20.2646a19.23233,19.23233,0,0,0,5.6992-7.3174c6.4737-15.832-4.081-27.583-4.081-27.583s-22.0947,5.0664-42.1484,13.6504c-14.2832,6.122-27.5118,14.0732-31.1709,23.29C1531.7343,1311.25,1582.4043,1401.1836,1582.4043,1401.1836Z"/><path class="cls-22" d="M1557.8759,1414.3213a3.06547,3.06547,0,0,1,1.6036-2.1621c2.1435-1.1807,6.5332-2.8741,9.8193-7.2627,1.8506-2.4659,9.4883-9.7608,9.4883-9.7608l.0449-.0215c.1973-.0478,1.1953-.0351,6.04,1.9473,2.5039,1.0215,5.1055-3.6777,5.1055-3.6777a4.79172,4.79172,0,0,1,1.5361,1.1035,4.42167,4.42167,0,0,1,1.2256,2.8193c.1221,1.8076,1.9922,4.7432,3.3848,6.6963.8447,1.1836,1.5097,2.0049,1.5097,2.0049s.5235,1.0195-3.7353,2.6367l-5.0947,1.3174c-1.7686.2041-3.1416.0928-4.9444.3428-2.7382.3798-3.7138,1.6591-3.8994,1.9433a.60365.60365,0,0,0-.0351.0576l-21.6465,5.5957C1557.5556,1417.3545,1557.667,1415.626,1557.8759,1414.3213Z"/><g id="BPbxa9"><path class="cls-23" d="M1515.4394,1417.7217a4.0234,4.0234,0,0,0,4.0225-4.0215,90.56041,90.56041,0,0,0-123.8682-84.1709,4.02418,4.02418,0,0,0,2.9746,7.4785,82.50572,82.50572,0,0,1,112.8487,76.6924A4.02331,4.02331,0,0,0,1515.4394,1417.7217Z"/><path class="cls-22" d="M1442.6025,1413.6943a13.40285,13.40285,0,1,0-13.4023,13.4033A13.40262,13.40262,0,0,0,1442.6025,1413.6943Z"/><rect class="cls-22" x="1407.53543" y="1380.22438" width="67.25725" height="1.81784" transform="translate(-345.57061 2271.1121) rotate(-70.25955)"/><polygon class="cls-22" points="1493.358 1442.245 1494.075 1440.574 1429.796 1412.962 1387.539 1352.595 1386.05 1353.637 1428.604 1414.428 1428.841 1414.529 1493.358 1442.245"/><path class="cls-22" d="M1454.6894,1483.497l1.7246-.5751c-.4551-1.3643-25.3076-66.7666-26.3652-69.5499l-.6455-1.7001L1389.3584,1475l1.5351.9717,38.1026-60.2549C1438.0986,1439.6719,1454.3437,1482.458,1454.6894,1483.497Z"/><rect class="cls-22" x="1428.67611" y="1402.10894" width="72.37919" height="1.81727" transform="translate(-216.60443 268.58025) rotate(-9.75821)"/><rect class="cls-22" x="1413.29757" y="1344.30126" width="1.81738" height="66.09133" transform="translate(-363.13241 518.20133) rotate(-18.44492)"/><polygon class="cls-22" points="1429.344 1414.64 1429.61 1414.505 1495.036 1381.338 1494.215 1379.717 1429.056 1412.749 1358.927 1400.985 1358.626 1402.778 1429.344 1414.64"/><path class="cls-22" d="M1402.8007,1481.2256c.3877-1.1397,17.1768-42.4532,26.5772-65.5567l36.3115,57.124,1.5332-.9755-38.2012-60.0967-.663,1.6318c-1.0957,2.6904-26.8233,65.9229-27.2813,67.2979Z"/><rect class="cls-22" x="1463.50263" y="1383.32222" width="1.81795" height="71.19486" transform="translate(-153.87117 2659.48209) rotate(-81.56957)"/><rect class="cls-22" x="1422.58028" y="1380.30037" width="59.58154" height="1.81717" transform="matrix(0.65579, -0.75494, 0.75494, 0.65579, -542.81481, 1571.87408)"/><rect class="cls-22" x="1428.74539" y="1418.57979" width="1.81773" height="66.10503" transform="translate(-115.20659 123.26767) rotate(-4.7461)"/><rect class="cls-22" x="1363.38424" y="1430.73273" width="75.74608" height="1.81724" transform="translate(-566.03921 1053.66854) rotate(-34.7389)"/><polygon class="cls-22" points="1480.805 1462.495 1482.095 1461.216 1430.108 1408.777 1430.108 1340.545 1428.291 1340.545 1428.291 1409.525 1480.805 1462.495"/><path class="cls-24" d="M1493.0097,1367.8437c-1.4492-2.0097-3-3.9599-4.6299-5.8203a79.1059,79.1059,0,0,0-22-17.5596,76.81807,76.81807,0,0,0-11.3994-5.0205,78.53444,78.53444,0,0,0-34.0703-3.9101h-.0098a78.35492,78.35492,0,0,0-42.9404,18.6006l-.0097.0097a78.56358,78.56358,0,0,0-24.4405,80.7598,77.49879,77.49879,0,0,0,7.4199,17.75c.0909.1807.2002.3506.3008.5303a78.524,78.524,0,0,0,58.0401,38.4795h.04a77.41489,77.41489,0,0,0,9.8897.6308,79.89274,79.89274,0,0,0,10.08-.6406h.0196a78.57272,78.57272,0,0,0,53.7099-123.8096Zm-1.2597,71.7295c-.2198.5606-.46,1.1201-.7198,1.6699a67.682,67.682,0,0,1-11.3603,17.5205q-.5991.69-1.2295,1.3497a68.42312,68.42312,0,0,1-12.1699,10.2002c-.5.3398-1.0108.6601-1.5303.9804a67.418,67.418,0,0,1-10.6699,5.3692c-.5606.2207-1.1299.4404-1.7002.6504a67.17306,67.17306,0,0,1-19.3496,3.9697c-.6104.04-1.21.0605-1.8203.0801-.67.0205-1.3301.0302-2,.0302a67.64812,67.64812,0,0,1-24.6202-4.6299c-.5703-.2099-1.1298-.4404-1.6904-.6699a68.49484,68.49484,0,0,1-7.9297-3.9902c-.3896-.2295-.7803-.4697-1.1699-.71-.5195-.3095-1.0303-.6299-1.5303-.9697a67.97846,67.97846,0,0,1-17.9199-17.0605c-.3096-.4297-.6201-.8702-.9199-1.3096-.3496-.5-.6895-1.0098-1.0098-1.5205-.6201-.9297-1.2002-1.8701-1.7598-2.8291a67.86444,67.86444,0,0,1-9.1503-34.0108,68.66832,68.66832,0,0,1,.7802-10.3095c.0996-.6006.2002-1.2002.2998-1.7901a67.80224,67.80224,0,0,1,27.0703-42.8105c.4893-.3594.9893-.71,1.4893-1.0498a67.73348,67.73348,0,0,1,13.2207-7.0293c.5693-.2207,1.1397-.4307,1.71-.6406a67.11547,67.11547,0,0,1,22.2197-4.0596c.2998-.0108.6103-.0108.9102-.0108.2998,0,.6103,0,.9101.0108a67.16665,67.16665,0,0,1,20.8399,3.5693h.0097c.1699.0606.3301.1201.5.1807.5801.2002,1.1406.4092,1.71.6201a68.39361,68.39361,0,0,1,8.5898,3.9697,67.52328,67.52328,0,0,1,8.1504,5.2901c.4902.3593.96.7295,1.4297,1.1201a68.2386,68.2386,0,0,1,7.1406,6.5596,67.2579,67.2579,0,0,1,6,7.3496,65.00442,65.00442,0,0,1,4.6699,7.6103c.2901.5401.5694,1.0801.8301,1.6201a67.34658,67.34658,0,0,1,4.8301,13.0498c.1397.5899.29,1.1807.4199,1.7803a68.08689,68.08689,0,0,1,1.0694,24.0098c-.0801.6006-.17,1.2099-.2696,1.7998A66.06734,66.06734,0,0,1,1491.75,1439.5732Z"/><rect class="cls-25" x="1524.41788" y="1348.26918" width="151.68564" height="8.1774" transform="translate(-175.18038 2464.79443) rotate(-72.27067)"/><polygon class="cls-25" points="1584.939 1426.249 1693.966 1416.769 1491.767 1280.061 1503.334 1303.743 1670.271 1410.62 1584.231 1418.102 1584.939 1426.249"/><polygon class="cls-25" points="1570.245 1419.849 1577.117 1415.416 1493.225 1281.026 1483.456 1291.135 1570.245 1419.849"/><path class="cls-22" d="M1435.7119,1410.0908l46.7217-99.9873-6.2598-2.5039a7.92062,7.92062,0,0,0-10.3018,4.4287l-37.7324,94.9727Z"/><path class="cls-22" d="M1482.4336,1310.1035c6.7617-17.544,18.0459-45.1025,17.8662-44.833l-6.8057-4.5342c-.333.5-.5527.8301-18.2832,46.8369Z"/><path class="cls-22" d="M1521.6523,1274.8486a8.29476,8.29476,0,1,0-11.5781,1.8877A8.29572,8.29572,0,0,0,1521.6523,1274.8486Z"/><path class="cls-22" d="M1490.25,1253.1299a8.29483,8.29483,0,1,0-11.5782,1.8886A8.29407,8.29407,0,0,0,1490.25,1253.1299Z"/><polygon class="cls-22" points="1482.158 1256.072 1513.842 1276.234 1518.235 1267.581 1486.552 1247.419 1482.158 1256.072"/><path class="cls-22" d="M1534.3046,1445.499h17.7198a3.79769,3.79769,0,0,0,3.7861-3.7861h0a3.79713,3.79713,0,0,0-3.7861-3.7862h-17.7198a3.79713,3.79713,0,0,0-3.7861,3.7862h0A3.79769,3.79769,0,0,0,1534.3046,1445.499Z"/><rect class="cls-22" x="1540.55593" y="1429.67271" width="39.44419" height="3.17994" transform="translate(-453.03961 775.87542) rotate(-24.49913)"/><path class="cls-22" d="M1695.5214,1413.6943a13.4028,13.4028,0,1,0-13.4033,13.4033A13.40341,13.40341,0,0,0,1695.5214,1413.6943Z"/><rect class="cls-22" x="1660.45433" y="1380.22438" width="67.25725" height="1.81784" transform="translate(-178.07756 2509.16754) rotate(-70.25955)"/><polygon class="cls-22" points="1746.276 1442.245 1746.994 1440.574 1682.715 1412.962 1640.458 1352.595 1638.969 1353.637 1681.522 1414.428 1681.76 1414.529 1746.276 1442.245"/><path class="cls-22" d="M1707.6084,1483.497l1.7246-.5751c-.4561-1.3643-25.3077-66.7666-26.3653-69.5499l-.6455-1.7001L1642.2763,1475l1.5362.9717,38.1025-60.2549C1691.0175,1439.6719,1707.2627,1482.458,1707.6084,1483.497Z"/><rect class="cls-22" x="1681.59501" y="1402.10893" width="72.37924" height="1.81728" transform="translate(-212.94489 311.4472) rotate(-9.75819)"/><rect class="cls-22" x="1666.21647" y="1344.30126" width="1.81747" height="66.09133" transform="translate(-350.12597 598.18795) rotate(-18.44392)"/><polygon class="cls-22" points="1682.263 1414.64 1682.529 1414.505 1747.955 1381.338 1747.134 1379.717 1681.975 1412.749 1611.846 1400.985 1611.545 1402.778 1682.263 1414.64"/><path class="cls-22" d="M1655.7197,1481.2256c.3877-1.1397,17.1767-42.4532,26.5771-65.5567l36.3116,57.124,1.5332-.9755-38.2012-60.0967-.6641,1.6318c-1.0947,2.6904-26.8222,65.9229-27.2802,67.2979Z"/><rect class="cls-22" x="1716.42127" y="1383.32244" width="1.81802" height="71.19441" transform="translate(61.2379 2908.85733) rotate(-81.54152)"/><rect class="cls-22" x="1675.4992" y="1380.30037" width="59.58161" height="1.81717" transform="translate(-455.759 1762.81001) rotate(-49.02007)"/><rect class="cls-22" x="1681.66434" y="1418.57981" width="1.81728" height="66.10498" transform="translate(-114.39295 144.26793) rotate(-4.74845)"/><rect class="cls-22" x="1616.30319" y="1430.73273" width="75.74608" height="1.81724" transform="translate(-520.95809 1197.78962) rotate(-34.73886)"/><polygon class="cls-22" points="1733.724 1462.495 1735.014 1461.216 1683.027 1408.777 1683.027 1340.545 1681.21 1340.545 1681.21 1409.525 1733.724 1462.495"/><path class="cls-24" d="M1682.1201,1335.0937a78.6526,78.6526,0,0,0-78.5996,78.5996c0,.9102.0195,1.8203.0498,2.7305a78.46953,78.46953,0,0,0,36.9599,63.9697c.5996.3799,1.21.75,1.8203,1.1104a78.605,78.605,0,1,0,39.7696-146.4102Zm62.5498,104.4795c-.2197.5606-.46,1.1201-.7197,1.6699a67.685,67.685,0,0,1-11.3604,17.5205q-.5991.69-1.2295,1.3497a68.42312,68.42312,0,0,1-12.1699,10.2002c-.5.3398-1.0108.6601-1.5303.9804a67.418,67.418,0,0,1-10.6699,5.3692c-.5606.2207-1.1299.4404-1.7002.6504a67.30524,67.30524,0,0,1-19.3604,3.9697c-.5996.04-1.2099.0605-1.8095.0801-.6699.0205-1.3301.0302-2,.0302a67.60892,67.60892,0,0,1-24.6201-4.6299c-.5704-.2099-1.1299-.4404-1.6905-.6699a68.49484,68.49484,0,0,1-7.9297-3.9902c-.3896-.2295-.7793-.4697-1.1699-.71-.5195-.3095-1.0303-.6299-1.5303-.9697a.05605.05605,0,0,1-.0498-.0303,67.93735,67.93735,0,0,1-18.79-18.3398c-.3496-.5-.6895-1.0098-1.0098-1.5205-.6201-.9297-1.2002-1.8701-1.7597-2.8291a67.19575,67.19575,0,0,1-8.4102-24.0801,65.14112,65.14112,0,0,1-.7099-8.1504c-.0206-.5898-.0303-1.1904-.0303-1.7803a68.65514,68.65514,0,0,1,.7803-10.3095c.0996-.6006.2001-1.2002.2998-1.7901a66.93265,66.93265,0,0,1,7.6601-21.1299,64.9387,64.9387,0,0,1,5.2901-7.9902,68.14323,68.14323,0,0,1,14.1201-13.6904c.4892-.3594.9892-.71,1.4892-1.0498a67.76207,67.76207,0,0,1,13.2207-7.0293c.5703-.2207,1.1397-.4307,1.71-.6406a66.46867,66.46867,0,0,1,13.2295-3.3497h.0107a68.011,68.011,0,0,1,8.9795-.7099c.2998-.0108.6104-.0108.9102-.0108s.6103,0,.9101.0108a67.07224,67.07224,0,0,1,21.3496,3.75c.5801.2002,1.1407.4092,1.71.6201a67.44918,67.44918,0,0,1,16.7402,9.2598c.4903.3593.96.7295,1.4297,1.1201a67.90969,67.90969,0,0,1,17.8106,21.5195c.29.5401.5693,1.0801.83,1.6201a67.34658,67.34658,0,0,1,4.8301,13.0498c.1397.5899.2901,1.1807.4092,1.7803a67.81461,67.81461,0,0,1,1.0801,24.0098c-.0801.6006-.1699,1.2099-.2695,1.7998A66.07262,66.07262,0,0,1,1744.6699,1439.5732Z"/><path class="cls-7" d="M1618.0634,1333.0439a4.08853,4.08853,0,0,0,3.4698-.3574h0c36.7773-22.2197,87.6582-13.8701,102.3779-10.7803l.0234.0049a1.30512,1.30512,0,0,0,1.5742-1.2773v-2.8741a4.434,4.434,0,0,0-3.7822-4.3886c-7.9629-1.1856-26.5644-3.7315-36.957-3.7764-.2803-.001-.5615-.0019-.8408-.0019-23.2793,0-43.3838,4.166-59.9043,12.4003a13.93991,13.93991,0,0,1-10.8399.669l-4.5322-1.5928a4.96845,4.96845,0,0,0-6.3359,3.041h0a3.20965,3.20965,0,0,0,1.9638,4.0918Z"/><path class="cls-7" d="M1652.2451,1277.0498s1.4765-6.7012-2.7256-7.1553c-4.2031-.4541-19.5371,2.8399-23.626,2.3848-4.0898-.4541-25.4433-3.9756-29.1914-.3408-3.749,3.6347-2.1582,6.8154,5.3379,7.497,7.4971.6817,17.4922,1.9307,20.332,4.3164C1625.2119,1286.1377,1645.7705,1293.1797,1652.2451,1277.0498Z"/><circle class="cls-23" cx="1577.165" cy="1424.5986" r="20.4453"/></g><path class="cls-21" d="M1505.915,1251.2988s-6.6934-8.4922-10.3525-7.4355a8.79941,8.79941,0,0,0-6.6827,8.7763c.1534,1.1778.0791,5.8194,2.8838,6.8115a7.66337,7.66337,0,0,0,7.0166-1.3134C1500.0761,1257.0508,1505.915,1251.2988,1505.915,1251.2988Z"/><path class="cls-21" d="M1494.5595,1244.4414s.9268,5.2773,7.3301,7.0361c6.4033,1.6895,46.0059-14.9756,55.4346-19.6191,5.0664-2.5332,12.3838-16.6055,18.0127-28.9199,1.3369-3.0254,2.6035-5.9102,3.7295-8.5137,2.8144-6.544,4.6435-11.2578,4.6435-11.2578,0-6.4737-7.1455-3.9453-13.6191-.9903-1.9707.9151-12.2813-3.4443-15.0254,1.833-1.2666,2.462-2.9483,2.1827-4.2149,4.9268-4.996,11.0469-9.5693,23.501-10.5546,26.4561C1538.5371,1220.6699,1494.5595,1244.4414,1494.5595,1244.4414Z"/><path class="cls-26" d="M1510.8623,1256.2461s-6.6582-8.3594-10.3526-7.4356c-8.7011,2.1758-7.5302,8.4483-7.376,9.626.1534,1.1777.7735,4.9707,3.5772,5.9629a7.66621,7.66621,0,0,0,7.0166-1.3135C1505.0234,1261.998,1510.8623,1256.2461,1510.8623,1256.2461Z"/><path class="cls-26" d="M1587.4248,1172.5146l-22.5948,8.3379c-2.8857-2.8047-5.7812-7.2637-8.1045-11.3389-2.8828-5.0634-4.8818-9.5361-4.8818-9.5361l15.7852-11.0537,4.9589-3.4736C1572.9082,1155.5224,1587.4248,1172.5146,1587.4248,1172.5146Z"/><path class="cls-21" d="M1573.7822,1150.9092s-4.4717,13.9453-17.0567,18.6044c-2.8828-5.0634-4.8818-9.5361-4.8818-9.5361l15.7852-11.0537Z"/><path class="cls-26" d="M1544.6923,1159.6367s27.9405,4.3809,30.4014-13.0606c2.46-17.4414,7.7236-28.622-10.0107-32.1572-17.7354-3.5351-22.1475,2.6309-24.3848,8.252C1538.4599,1128.2929,1537.4882,1158.0478,1544.6923,1159.6367Z"/><path class="cls-23" d="M1581.3623,1111.2412a4.852,4.852,0,0,0-2.2881,1.3232l-.0137-.0205c-.0732-3.7607-3.7656-7.5635-3.7656-7.5635,1.7744,2.2276,1.1982,6.3545,1.1982,6.3545-5.2617-8.998-30.8779-1.9209-33.2793-1.3222-2.4013.5976-4.0967-3.0049-4.0967-3.0049-3.7919,3.2851-5.2353,11.3252-2.0927,16.5801,3.1445,5.2549,13.3379,12.9834,16.2724,11.5136,2.9356-1.4707,2.9414,1.5674,2.7881,5.836-.1533,4.2685,7.2412,11.4424,12.4541,12.4853,4.1992.8399,4.5283-2.0342,5.6748-3.8681a5.77135,5.77135,0,0,1,1.0215-1.2344c5.7168-5.1631,8.8682-15.4795,7.5879-25.6445a25.4524,25.4524,0,0,0-3.1152-9.0713A13.17746,13.17746,0,0,1,1581.3623,1111.2412Z"/><path class="cls-23" d="M1571.7002,1265.6543c.2812,1.2666,3.3779,11.6806,11.3994,14.3545,5.206,1.7597,17.872,6.0517,29.1308,6.8955a19.23233,19.23233,0,0,0,5.6992-7.3174c6.4737-15.832-4.081-27.583-4.081-27.583S1591.7539,1257.0703,1571.7002,1265.6543Z"/><path class="cls-26" d="M1635.1591,1228.9355s22.6368,26.0723,1.8506,55.3867c-20.7861,29.3145-54.6338,52.9707-56.497,63.4248-3.6055,20.2344-25.1543,62.0127-35.4161,82.6817l-8.7949-3.3711s16.4961-97.9648,22.3594-109.6904c5.8623-11.7256,36.2422-66.6231,36.2422-66.6231Z"/><path class="cls-27" d="M1550.5908,1187.622c2.1816.7032,7.459,2.6739,8.8662,5.0655,1.4775,2.3926,16.958-4.292,18.7871-10.5547-4.4326-4.8545-12.0322-9.0059-16.4648-7.5986C1559.1757,1175.3076,1554.9541,1180.8662,1550.5908,1187.622Z"/><path class="cls-28" d="M1639.7177,1236.9531s-29.3877,20.9385-49.0312,19.7656c0,0-12.8994,21.9883-15.7578,29.2451,0,0,33.4218,16.711,50.7929,13.6329,0,0,22.6485-21.9893,21.3291-37.3809C1645.7314,1246.8242,1639.7177,1236.9531,1639.7177,1236.9531Z"/><path class="cls-5" d="M1559.0966,1197.5693l7.045,10.0352.5625,1.2666,14.6367,33.4228,7.458,17.0283c4.9961,1.1963,14.2842.3516,18.4355-1.1259,22.6573-7.7403,32.5078-21.25,32.5078-21.25-13.1582-34.4082-31.3828-57.9092-35.1113-62.0606-6.4736-7.0361-23.4316-12.8066-23.4316-12.8066-4.6436,4.7851-21.249,13.1582-21.249,13.1582C1556.291,1178.122,1559.0966,1197.5693,1559.0966,1197.5693Z"/><path class="cls-27" d="M1566.7041,1208.8711l14.6367,33.4228c11.1172-22.4453,4.081-55.0244,4.081-55.0244s-17.873,15.4805-18.5058,16.6768A36.57766,36.57766,0,0,0,1566.7041,1208.8711Z"/><path class="cls-26" d="M1499.5078,1249.3896s.9258,5.2764,7.3291,7.0362c6.4033,1.6884,46.0058-14.9766,55.4345-19.6202,5.0664-2.5332,12.3838-16.6054,18.0127-28.9189,1.3379-3.0264,2.6036-5.9111,3.7295-8.5147,2.8145-6.5439,4.6446-11.2578,4.6446-11.2578,0-6.4736-15.2696-15.2695-21.7422-12.3134-1.9707.915-4.5742,4.9248-7.3184,10.2021-1.2666,2.4629-2.5332,5.1367-3.7998,7.8809-4.9961,11.0478-9.5693,23.5019-10.5537,26.457C1543.4843,1225.6181,1499.5078,1249.3896,1499.5078,1249.3896Z"/><path class="cls-5" d="M1555.7978,1193.8838c5.9111,2.6738,16.5352,7.8808,24.4863,14.0029,1.3379-3.0264,2.6036-5.9111,3.7295-8.5147,2.8145-6.5439,4.6446-11.2578,4.6446-11.2578,0-6.4736-15.2696-15.2695-21.7422-12.3134-1.9707.915-4.5742,4.9248-7.3184,10.2021C1558.331,1188.4658,1557.0644,1191.1396,1555.7978,1193.8838Z"/><path class="cls-25" d="M1548.5576,1438.4463h-5.2627c-1.7637-.2461-3.0654-.6963-4.8731-.9053-2.7461-.3193-4.0097.6768-4.2617.9053a.45419.45419,0,0,0-.0488.0468h-22.3574c-.5625-.7109-.0225-2.3554.5068-3.5664a3.06447,3.06447,0,0,1,2.0928-1.6914c2.3711-.6074,7.0449-1.1484,11.3252-4.5752,2.4082-1.9238,11.6289-7.0752,11.6289-7.0752l.0488-.0097c.2022.0029,1.166.2646,5.3604,3.3965,2.1679,1.6152,5.8632-2.2823,5.8632-2.2823a4.785,4.785,0,0,1,1.212,1.4532,4.41332,4.41332,0,0,1,.4794,3.0351c-.3339,1.7813.7432,5.0918,1.6026,7.3311.5205,1.3564.9599,2.3183.9599,2.3183S1553.0849,1437.9453,1548.5576,1438.4463Z"/><path class="cls-22" d="M1549.792,1424.1426c-1.2569.7822-3.9092,2.3252-5.668,2.5273-2.375.2754-6.8164-5.085-6.8164-5.085l.0488-.0097c.2022.0029,1.166.2646,5.3604,3.3965,2.1679,1.6152,5.8632-2.2823,5.8632-2.2823A4.785,4.785,0,0,1,1549.792,1424.1426Z"/><path class="cls-22" d="M1548.5576,1438.4463h-5.2627c-1.7637-.2461-3.0654-.6963-4.8731-.9053-2.7461-.3193-4.0097.6768-4.2617.9053a.45419.45419,0,0,0-.0488.0468h-22.3574c-.5625-.7109-.0225-2.3554.5068-3.5664.6787-.5341.8701,2.3184,1.2451,2.7735.375.4541,18.2383.166,19.2705-.4981,1.0313-.6631,4.126-1.8242,8.4395-.9121,3.7558.793,9.289-1.2402,10.6582-1.7812.5205,1.3564.9599,2.3183.9599,2.3183S1553.0849,1437.9453,1548.5576,1438.4463Z"/><path class="cls-23" d="M2334.8525,1423.4629a3.4901,3.4901,0,0,0,3.4883-3.4893,78.55484,78.55484,0,0,0-107.4463-73.0117,3.49077,3.49077,0,1,0,2.5801,6.4873,71.56827,71.56827,0,0,1,97.8886,66.5244A3.49031,3.49031,0,0,0,2334.8525,1423.4629Z"/><path class="cls-21" d="M2397.788,1254.1738s-5.3193,11.0664-12.0439,26.4043c-7.542,17.1963-16.8457,39.7676-22.3877,58.1172-2.9297,9.706-4.8105,18.2285-4.8154,24.1553-.003,2.0341,7.8398,10.2939,10.1035,13.4443,14.29,19.8877,33.8076,46.4463,33.8076,46.4463l5.3281-1.3379s-7.4629-33.2168-18.3349-49.7998c-2.1377-3.2607-8.1602-7.2305-7.8741-7.5889a.02283.02283,0,0,1,.0108-.0107c.9385-1.1758,3.2793-4.124,6.4726-8.3281,8.8135-11.5977,24.1133-32.7315,34.3604-52.3926q.95655-1.8384,1.8545-3.6592c5.4023-10.9727,8.9678-21.2549,8.6182-28.875Z"/><path class="cls-29" d="M2412.5039,1422.6885l-3.667,2.3193c-1.3496.584-2.4824.8017-3.8457,1.4346a4.02436,4.02436,0,0,0-2.5176,2.5918c-.0078.038-.0098.0576-.0098.0576l-15.5752,9.8545c-.7461-.3106-1.1894-1.8448-1.4248-3.0323a2.62282,2.62282,0,0,1,.6153-2.2548c1.3486-1.5235,4.3359-4.0098,5.6093-8.5957.7188-2.5772,4.5733-10.6993,4.5733-10.6993l.0293-.0293c.1435-.0869.9453-.3056,5.4277.3125,2.3154.3174,2.9463-4.3818,2.9463-4.3818a4.33716,4.33716,0,0,1,1.5684.6104,4.57982,4.57982,0,0,1,1.8476,2.1796c.6553,1.5508,3.0557,3.6836,4.7695,5.0694,1.0401.8388,1.8252,1.4033,1.8252,1.4033S2415.4082,1420.2978,2412.5039,1422.6885Z"/><path class="cls-30" d="M2406.2334,1410.876c-.4844,1.1709-1.5635,3.5546-2.6885,4.4902-1.5166,1.2627-7.2832-1.002-7.2832-1.002l.0293-.0293c.1435-.0869.9453-.3056,5.4277.3125,2.3154.3174,2.9463-4.3818,2.9463-4.3818A4.33716,4.33716,0,0,1,2406.2334,1410.876Z"/><path class="cls-30" d="M2412.5039,1422.6885l-3.667,2.3193c-1.3496.584-2.4824.8017-3.8457,1.4346a4.02436,4.02436,0,0,0-2.5176,2.5918c-.0078.038-.0098.0576-.0098.0576l-15.5752,9.8545c-.7461-.3106-1.1894-1.8448-1.4248-3.0323.2071-.7197,1.7617,1.4434,2.25,1.6358.4883.1933,12.7881-7.9082,13.1758-8.8858a8.89027,8.89027,0,0,1,5.4258-4.4384c3.0107-1.0313,5.8516-5.0713,6.5351-6.1006,1.0401.8388,1.8252,1.4033,1.8252,1.4033S2415.4082,1420.2978,2412.5039,1422.6885Z"/><rect class="cls-7" x="2342.00807" y="1362.24044" width="137.36707" height="7.40583" transform="translate(375.50524 3246.16985) rotate(-72.2703)"/><polygon class="cls-7" points="2396.817 1432.859 2495.552 1424.273 2312.439 1300.471 2322.915 1321.917 2474.093 1418.705 2396.176 1425.481 2396.817 1432.859"/><polygon class="cls-7" points="2383.51 1427.063 2389.733 1423.048 2313.76 1301.345 2304.913 1310.5 2383.51 1427.063"/><path class="cls-22" d="M2373.1367,1409.708l-13.8975,8.0234a3.438,3.438,0,0,0-1.2539,4.6836h0a3.4391,3.4391,0,0,0,4.6836,1.2549l13.8965-8.0234a3.43934,3.43934,0,0,0,1.2549-4.6836h0A3.43758,3.43758,0,0,0,2373.1367,1409.708Z"/><polygon class="cls-22" points="2370.383 1414.885 2387.905 1434.274 2389.522 1432.868 2371.999 1413.48 2370.383 1414.885"/><path class="cls-28" d="M2426.8134,1348.4531a3.70313,3.70313,0,0,0,3.1426-.3252h0c33.3057-20.1211,79.3828-12.5596,92.7129-9.7617l.0225.0039a1.18142,1.18142,0,0,0,1.4248-1.1563v-2.6035a4.01816,4.01816,0,0,0-3.4258-3.9746c-7.21-1.0732-24.0567-3.3789-33.4678-3.4189-.2539-.001-.5088-.002-.7617-.002-21.0811,0-39.2881,3.7735-54.249,11.2295a12.62235,12.62235,0,0,1-9.8164.6055l-4.1045-1.4414a4.49873,4.49873,0,0,0-5.7373,2.7539h0a2.90573,2.90573,0,0,0,1.7783,3.7051Z"/><path class="cls-22" d="M2457.7685,1297.7441s1.3379-6.0683-2.4687-6.4805c-3.8057-.4111-17.6914,2.5723-21.3955,2.1602-3.7032-.4111-23.0411-3.5996-26.4356-.3086-3.3945,3.292-1.9541,6.1719,4.835,6.7891,6.7881.6172,15.8398,1.749,18.4121,3.9092C2433.2871,1305.9736,2451.9052,1312.3506,2457.7685,1297.7441Z"/><circle class="cls-22" cx="2389.77633" cy="1431.36422" r="18.51564" transform="translate(-312.17807 2109.06392) rotate(-45)"/><rect class="cls-22" x="2469.59517" y="1391.31603" width="60.90867" height="1.64625" transform="translate(345.31157 3275.06331) rotate(-70.25969)"/><polygon class="cls-22" points="2547.317 1447.481 2547.966 1445.97 2489.755 1420.963 2451.486 1366.294 2450.138 1367.238 2488.675 1422.291 2488.89 1422.383 2547.317 1447.481"/><path class="cls-22" d="M2512.2988,1484.8398l1.5605-.5205c-.4111-1.2363-22.917-60.4639-23.8759-62.9844l-.584-1.54-36.2657,57.3496,1.3916.8799,34.5049-54.5664C2497.2734,1445.1513,2511.9853,1483.8984,2512.2988,1484.8398Z"/><rect class="cls-22" x="2488.7407" y="1411.13456" width="65.54641" height="1.64584" transform="matrix(0.98553, -0.16949, 0.16949, 0.98553, -202.83148, 447.80059)"/><rect class="cls-22" x="2474.81366" y="1358.78413" width="1.64603" height="59.85259" transform="translate(-312.10729 854.1291) rotate(-18.43495)"/><polygon class="cls-22" points="2489.345 1422.483 2489.587 1422.36 2548.836 1392.324 2548.092 1390.856 2489.084 1420.771 2425.575 1410.117 2425.303 1411.74 2489.345 1422.483"/><path class="cls-22" d="M2465.3076,1482.7832c.3515-1.0322,15.5547-38.4463,24.0683-59.3692l32.8838,51.7315,1.3887-.8828-34.5947-54.4229-.6016,1.4766c-.9912,2.4375-24.29,59.7002-24.7051,60.9453Z"/><rect class="cls-22" x="2520.27957" y="1394.12149" width="1.64587" height="64.47376" transform="translate(739.28645 3710.12447) rotate(-81.53809)"/><rect class="cls-22" x="2483.22025" y="1391.38458" width="53.95742" height="1.64583" transform="translate(-187.00902 2374.25112) rotate(-49.02002)"/><rect class="cls-22" x="2488.80285" y="1426.05082" width="1.64621" height="59.86511" transform="translate(-111.54683 210.18037) rotate(-4.72838)"/><rect class="cls-22" x="2429.61238" y="1437.05653" width="68.59545" height="1.64569" transform="translate(-380.18532 1660.30083) rotate(-34.73851)"/><polygon class="cls-22" points="2535.948 1465.82 2537.116 1464.661 2490.038 1417.174 2490.038 1355.383 2488.392 1355.383 2488.392 1417.851 2535.948 1465.82"/><circle class="cls-23" cx="2489.2148" cy="1421.6269" r="12.1377"/><path class="cls-24" d="M2547.2998,1380.5332a71.20135,71.20135,0,0,0-120.8995,7.6299v.0107a70.65878,70.65878,0,0,0-8.3701,33.4502c0,.6494.0098,1.3096.0293,1.96a67.69363,67.69363,0,0,0,.5908,7.3798,71.10485,71.10485,0,0,0,61.8702,61.2998,1.02713,1.02713,0,0,0,.25.0303,69.78472,69.78472,0,0,0,8.4394.5098,70.5,70.5,0,0,0,8.5196-.5098c.0908-.0107.1806-.0205.2607-.0303a71.13192,71.13192,0,0,0,49.3096-111.7304Zm2.4297,50.9004a60.49118,60.49118,0,0,1-2.4297,9.8095c-.4297,1.2901-.9092,2.5704-1.4395,3.8204-.21.5097-.4199,1.0097-.6504,1.5097a61.00756,61.00756,0,0,1-10.2998,15.8604c-.3603.4101-.7295.8203-1.1103,1.2197a60.99087,60.99087,0,0,1-11.0196,9.2402c-.4502.3106-.9101.5996-1.3799.8897a62.4217,62.4217,0,0,1-9.6708,4.8701c-.5098.2002-1.0293.3906-1.5391.5801a60.71476,60.71476,0,0,1-17.5205,3.6006c-.5498.0293-1.0996.0595-1.6494.0693-.6006.0205-1.2002.0303-1.8106.0303a61.28488,61.28488,0,0,1-22.29-4.1905c-.5098-.1992-1.0196-.3994-1.5293-.6191a60.98648,60.98648,0,0,1-7.1904-3.6006c-.3604-.2099-.71-.4199-1.0596-.6494-.4707-.2803-.9307-.5703-1.3906-.8809a61.29952,61.29952,0,0,1-17.0401-16.6298v-.0098c-.3301-.4502-.6299-.8994-.9199-1.3604-.5605-.8398-1.0898-1.6992-1.5996-2.5693a60.88755,60.88755,0,0,1-7.6904-22.3203,58.44871,58.44871,0,0,1-.5694-7.3799c-.0205-.3701-.0205-.7305-.0205-1.0996a60.97573,60.97573,0,0,1,.71-9.3203c.0801-.5498.1699-1.0899.2705-1.6299a61.2977,61.2977,0,0,1,10.3291-24.4902,61.83821,61.83821,0,0,1,14.1806-14.2901c.4502-.3203.8995-.6299,1.3497-.9394a60.93818,60.93818,0,0,1,11.9795-6.3604c.5-.2002,1.0107-.4004,1.5302-.5898a61.03136,61.03136,0,0,1,20.1309-3.6699c.2695-.0108.5498-.0108.8193-.0108.2803,0,.5498,0,.8301.0108a61.25225,61.25225,0,0,1,19.3301,3.3896c.5205.1797,1.04.3701,1.5498.5703a61.05274,61.05274,0,0,1,15.1601,8.3799c.4405.3301.8702.6699,1.2998,1.0098a61.75889,61.75889,0,0,1,16.1299,19.4902q.3912.73395.75,1.4697a59.85943,59.85943,0,0,1,3.0401,7.3701q.75,2.19,1.3203,4.4502c.1396.5293.2705,1.0596.3896,1.5997a61.17846,61.17846,0,0,1,1.5108,13.5605,59.764,59.764,0,0,1-.5508,8.1797C2549.9003,1430.3535,2549.8203,1430.8935,2549.7295,1431.4336Z"/><path class="cls-29" d="M2549.7705,1407.9336c-.1202-.5401-.2608-1.0703-.4004-1.5996a62.015,62.015,0,0,0-4.4698-12.0108q-.3603-.75-.75-1.4697a63.05747,63.05747,0,0,0-16.2998-19.71c-.4306-.3496-.8603-.6894-1.3007-1.0195a62.33262,62.33262,0,0,0-36.5098-12.75c-.46-.0205-.9102-.0205-1.3701-.0205h-.2793a62.43235,62.43235,0,0,0-20.5,3.54c-.5205.1797-1.0303.3701-1.5401.5703a62.13858,62.13858,0,0,0-12.371,6.3897c-.459.2998-.9092.6103-1.3594.9297a62.96067,62.96067,0,0,0-14.7198,14.5107,60.459,60.459,0,0,0-4.5703,7.3096,61.53864,61.53864,0,0,0-6.2597,17.7598c-.1104.54-.21,1.0908-.2901,1.6298a61.69163,61.69163,0,0,0-.8105,10.0508c0,.2793,0,.5694.0098.8496a62.329,62.329,0,0,0,10.1103,33.2803c.3008.46.6006.9102.9199,1.3594a63.0672,63.0672,0,0,0,17.6602,17.1709c.4599.2998.9306.5898,1.4004.8691a61.75461,61.75461,0,0,0,8.58,4.3906c.5098.21,1.0196.4102,1.5401.6094a62.373,62.373,0,0,0,22.4795,4.1699c.8398,0,1.6699-.0195,2.5-.0498q.8247-.02925,1.6504-.0898a62.17264,62.17264,0,0,0,17.9297-3.8799c.5205-.1904,1.0302-.3896,1.54-.5996a61.701,61.701,0,0,0,9.8906-5.1104q.69-.435,1.3789-.9003a62.34137,62.34137,0,0,0,11.1407-9.5498c.3798-.4004.75-.8096,1.1093-1.2198a62.4749,62.4749,0,0,0,10.3711-16.3506c.2295-.5.4395-1,.6397-1.5097.1699-.3994.33-.8096.4795-1.2198a62.55824,62.55824,0,0,0,3.3505-12.6904c.0792-.54.1592-1.0898.2295-1.6299a64.356,64.356,0,0,0,.4903-7.8994A62.48156,62.48156,0,0,0,2549.7705,1407.9336Zm-1.6202,23.2705c-.2304,1.4892-.5205,2.959-.8505,4.4092a60.15266,60.15266,0,0,1-2.7998,8.8701c-.21.5097-.42,1.0097-.6397,1.5097a60.2976,60.2976,0,0,1-9.8301,15.5508q-.54045.6153-1.1103,1.2295a60.12046,60.12046,0,0,1-10.7197,9.21q-.69.46575-1.3799.9004a59.57982,59.57982,0,0,1-9.42,4.8701c-.5097.2099-1.0205.4092-1.54.5996a59.19743,59.19743,0,0,1-17.25,3.7197c-.54.0508-1.1006.0801-1.6504.0899-.7597.041-1.5195.0507-2.29.0507a59.7246,59.7246,0,0,1-21.5401-3.9902c-.5097-.1904-1.0195-.4004-1.5293-.6103a59.43124,59.43124,0,0,1-8.1904-4.17c-.4697-.29-.9306-.58-1.3896-.8798a60.49089,60.49089,0,0,1-16.9307-16.4698c-.3193-.4502-.6201-.9101-.9199-1.3701a59.608,59.608,0,0,1-9.6602-32.0498c-.0097-.21-.0097-.4199-.0097-.6299a59.89513,59.89513,0,0,1,.7705-9.6308c.0898-.5498.1797-1.0899.289-1.6299A59.76639,59.76639,0,0,1,2440,1386.7138a60.50854,60.50854,0,0,1,14.0703-13.8603c.4502-.3203.8994-.6299,1.3603-.9297a59.62814,59.62814,0,0,1,11.7197-6.0605c.5098-.2002,1.0196-.3897,1.5401-.5694h.0098a59.71971,59.71971,0,0,1,19.6904-3.4101h.2793c.4599,0,.9199.0097,1.3701.0195a59.80326,59.80326,0,0,1,18.75,3.4404c.5195.1797,1.0303.3701,1.54.5801a59.44219,59.44219,0,0,1,14.5606,8.1201c.4394.3194.8691.6602,1.2998,1.0098a60.531,60.531,0,0,1,15.7002,18.9394q.38955.73545.75,1.4707a59.43,59.43,0,0,1,4.2295,11.2998c.1396.5303.2802,1.0596.4004,1.5997.0097.0302.0195.0703.0293.1103a60.56786,60.56786,0,0,1,1.0703,21.0996C2548.2998,1430.124,2548.2295,1430.6631,2548.1503,1431.2041Z"/><rect class="cls-22" x="2237.46744" y="1391.31579" width="60.90884" height="1.64672" transform="translate(191.56105 3056.54497) rotate(-70.25881)"/><polygon class="cls-22" points="2315.188 1447.481 2315.838 1445.97 2257.627 1420.963 2219.358 1366.294 2218.011 1367.238 2256.547 1422.291 2256.762 1422.383 2315.188 1447.481"/><path class="cls-22" d="M2280.1709,1484.8398l1.5615-.5205c-.4131-1.2363-22.919-60.4639-23.876-62.9844l-.585-1.54-36.2656,57.3496,1.3916.8799,34.5049-54.5664C2265.1455,1445.1513,2279.8574,1483.8984,2280.1709,1484.8398Z"/><rect class="cls-22" x="2256.6127" y="1411.13451" width="65.547" height="1.64592" transform="matrix(0.98553, -0.16949, 0.16949, 0.98553, -206.18709, 408.4501)"/><rect class="cls-22" x="2242.68576" y="1358.78412" width="1.64598" height="59.8526" transform="translate(-324.01933 780.7238) rotate(-18.43495)"/><polygon class="cls-22" points="2257.218 1422.483 2257.459 1422.36 2316.708 1392.324 2315.964 1390.856 2256.956 1420.771 2193.448 1410.117 2193.175 1411.74 2257.218 1422.483"/><path class="cls-22" d="M2233.1796,1482.7832c.3516-1.0322,15.5557-38.4463,24.0684-59.3692l32.8838,51.7315,1.3887-.8828-34.5948-54.4229-.6015,1.4766c-.9912,2.4375-24.2901,59.7002-24.7051,60.9453Z"/><rect class="cls-22" x="2288.15167" y="1394.12149" width="1.64587" height="64.47376" transform="translate(541.31662 3480.52354) rotate(-81.53809)"/><rect class="cls-22" x="2251.09233" y="1391.38458" width="53.95735" height="1.64583" transform="translate(-266.90744 2199.01228) rotate(-49.0201)"/><rect class="cls-22" x="2256.67585" y="1426.05082" width="1.64531" height="59.86511" transform="translate(-112.39387 191.15247) rotate(-4.73096)"/><rect class="cls-22" x="2197.48452" y="1437.05639" width="68.59586" height="1.64598" transform="translate(-421.56023 1528.00501) rotate(-34.73804)"/><polygon class="cls-22" points="2303.82 1465.82 2304.988 1464.661 2257.909 1417.174 2257.909 1355.383 2256.265 1355.383 2256.265 1417.851 2303.82 1465.82"/><circle class="cls-23" cx="2257.0869" cy="1421.6269" r="12.1377"/><path class="cls-31" d="M2294.29,1360.9638a64.89078,64.89078,0,0,0-5.7305-3.1699,68.50025,68.50025,0,0,0-9.33-3.8203,71.12289,71.12289,0,0,0-51.8995,3c-1.29.5899-2.5703,1.2305-3.8203,1.9004a71.17031,71.17031,0,0,0-2.4394,124.1592c.7998.4707,1.6201.9306,2.4394,1.3603a70.66812,70.66812,0,0,0,24.8906,7.8701,1.01688,1.01688,0,0,0,.25.0303,69.79992,69.79992,0,0,0,8.4395.5098,70.52592,70.52592,0,0,0,8.5205-.5098c.0899-.0107.1797-.0205.2598-.0303a71.1643,71.1643,0,0,0,28.4199-131.2998Zm23.3105,70.4698a59.929,59.929,0,0,1-3.8808,13.6299c-.1992.5097-.4199,1.0097-.6494,1.5097a61.00032,61.00032,0,0,1-10.2901,15.8604c-.3603.4101-.7304.8203-1.1103,1.2197a60.56275,60.56275,0,0,1-11.0196,9.2402c-.4599.3106-.9101.5996-1.3798.8897a62.06288,62.06288,0,0,1-9.67,4.8701c-.5.2002-1.0107.3906-1.5302.5801a60.64793,60.64793,0,0,1-17.5205,3.6006c-.5498.0293-1.0996.0595-1.6495.0693-.6005.0205-1.2001.0303-1.8105.0303a61.25919,61.25919,0,0,1-22.2998-4.1905c-.5098-.1992-1.0195-.3994-1.5195-.6191a60.98783,60.98783,0,0,1-7.1905-3.6006c-.3603-.2099-.7099-.4199-1.0595-.6494-.4707-.2803-.9307-.5703-1.3907-.8809a.391.391,0,0,1-.1201-.08,61.17715,61.17715,0,0,1-16.9297-16.5498c-.33-.4502-.6396-.9092-.9199-1.3702-.5703-.8398-1.0898-1.6992-1.6006-2.5693a61.451,61.451,0,0,1-7.5693-40.1201c.0801-.5498.1699-1.0899.2695-1.6299a61.4361,61.4361,0,0,1,24.5108-38.7803c.4492-.3203.8896-.6299,1.3496-.9394.29-.2002.5898-.4004.8896-.5908a60.74347,60.74347,0,0,1,11.0908-5.7696c.5098-.2002,1.0293-.4004,1.5401-.5898a61.0124,61.0124,0,0,1,20.1191-3.6699c.2803-.0108.5498-.0108.8301-.0108.2705,0,.5508,0,.8203.0108a61.02474,61.02474,0,0,1,17.6699,2.8398c.5606.1699,1.1104.3594,1.6602.5498.5195.1797,1.04.3701,1.5498.5703a60.11961,60.11961,0,0,1,5.75,2.5196,62.26305,62.26305,0,0,1,9.4102,5.8603c.4404.3301.8701.6699,1.2998,1.0098a61.75992,61.75992,0,0,1,16.1298,19.4902c.2608.4893.5108.9795.7403,1.4795a60.1028,60.1028,0,0,1,4.3701,11.8105c.1396.5293.2695,1.0596.3896,1.5997a61.38658,61.38658,0,0,1,.96,21.7402C2317.7705,1430.3535,2317.6904,1430.8935,2317.6005,1431.4336Z"/><path class="cls-29" d="M2317.6406,1407.9336c-.1201-.5401-.2608-1.0703-.4004-1.5996a61.36315,61.36315,0,0,0-4.4697-12.0108q-.36045-.75-.75-1.4697a63.06191,63.06191,0,0,0-16.3008-19.71c-.4297-.3496-.8594-.6894-1.2998-1.0195a62.47166,62.47166,0,0,0-18.5293-9.7207h-.0108a58.99523,58.99523,0,0,0-7.1503-1.8496,60.2623,60.2623,0,0,0-10.8194-1.1797c-.4599-.0205-.9101-.0205-1.3701-.0205h-.2803c-1.6797.0098-3.3496.0801-5,.2197a61.76325,61.76325,0,0,0-15.4892,3.3203c-.5205.1797-1.041.3701-1.5508.5703a61.09321,61.09321,0,0,0-10.71,5.3194c-.5595.3408-1.1094.7002-1.6592,1.0703-.4599.2998-.9101.6103-1.3603.9297a62.72068,62.72068,0,0,0-25.5498,39.5801c-.1104.54-.2109,1.0908-.2901,1.6298a61.69163,61.69163,0,0,0-.8105,10.0508,62.34023,62.34023,0,0,0,10.1201,34.1299c.2998.46.6104.9199.9199,1.3701a63.05867,63.05867,0,0,0,17.67,17.1602c.3203.209.6406.4199.9599.6094.1406.0996.2901.1904.4307.2705a61.91941,61.91941,0,0,0,8.5898,4.3798c.5.21,1.0098.4102,1.5196.6094a62.43436,62.43436,0,0,0,22.4902,4.1699c.8398,0,1.6797-.0195,2.5098-.0498q.82605-.02925,1.6504-.0898a62.03649,62.03649,0,0,0,17.9199-3.8799c.5205-.1904,1.0302-.3896,1.54-.5996a61.61222,61.61222,0,0,0,9.8897-5.1104q.68985-.435,1.3808-.9003a62.4397,62.4397,0,0,0,11.1397-9.5498c.3799-.4004.75-.8096,1.1103-1.2198a62.75319,62.75319,0,0,0,10.3789-16.3506c.2207-.5.4307-1,.6309-1.5097a61.8728,61.8728,0,0,0,3.8301-13.9102c.08-.54.1601-1.0898.2295-1.6299a64.37581,64.37581,0,0,0,.4902-7.8994A62.48156,62.48156,0,0,0,2317.6406,1407.9336Zm-1.6201,23.2705a60.23947,60.23947,0,0,1-3.6504,13.2793c-.21.5097-.4199,1.0097-.6406,1.5097a60.29724,60.29724,0,0,1-9.8292,15.5508q-.54045.6153-1.1103,1.2295a60.08546,60.08546,0,0,1-10.7197,9.21q-.69.46575-1.3799.9004a59.6221,59.6221,0,0,1-9.4199,4.8701c-.5108.2099-1.0205.4092-1.541.5996a59.19572,59.19572,0,0,1-17.2393,3.7197c-.54.0508-1.0996.0801-1.6504.0899-.7598.041-1.5303.0507-2.2998.0507a59.72406,59.72406,0,0,1-21.54-3.9902c-.5098-.1904-1.0205-.4004-1.5303-.6103a59.35169,59.35169,0,0,1-8.1797-4.17c-.4697-.29-.9297-.58-1.3897-.8798-.1298-.0801-.2597-.1602-.3906-.2598a60.50986,60.50986,0,0,1-16.5498-16.21c-.3096-.4502-.6201-.9101-.9101-1.3701a60.12616,60.12616,0,0,1-8.9092-42.3105c.0889-.5498.1797-1.0899.29-1.6299a60.214,60.214,0,0,1,24.5196-37.9199c.4501-.3301.9003-.6397,1.3496-.9395.0703-.0498.1406-.0898.2099-.1299a59.08241,59.08241,0,0,1,11.5108-5.9306c.5097-.2002,1.0293-.3897,1.5498-.5694a59.71831,59.71831,0,0,1,19.6894-3.4101h.2803c.46,0,.9199.0097,1.3701.0195a59.30522,59.30522,0,0,1,17.0401,2.8701c.58.1807,1.1396.3701,1.7099.5703.5205.1797,1.0303.3701,1.5401.5801a59.53963,59.53963,0,0,1,14.5595,8.1201c.4405.3194.8701.6602,1.2998,1.0098a60.51749,60.51749,0,0,1,15.7002,18.9394q.3912.73545.75,1.4707a59.3655,59.3655,0,0,1,4.2305,11.2998c.1396.5303.2803,1.0596.4004,1.5997a60.47454,60.47454,0,0,1,1.0996,21.2099C2316.1699,1430.124,2316.1005,1430.6631,2316.0205,1431.2041Z"/><path class="cls-26" d="M2441.3545,1254.3926s15.0556,23.8662-3.5489,36.9931c-18.6045,13.127-81.2422,19.4043-78.1709,21.9502,9.3946,7.7881,17.9287,19.7666,17.4795,91.4844l-4.6406,2.3955s-44.668-97.1709-41.6738-108.75C2332.7822,1290.7998,2397.9316,1249.3105,2441.3545,1254.3926Z"/><path class="cls-28" d="M2405.2392,1304.0556s37.9531-6.288,41.8692-19.6855c2.9248-10.0088,3.791-14.0918-13.4102-46.4326,0,0-7.1865,13.6553-44.7012,10.4931,0,0,.1914,1.7725.1914,4.168-.0478,3.9766-.6709,9.6299-3.7851,11.2588-.0479.0488-.1436.0488-.1914.0967-4.9356,2.2519-12.5791,6.7949-13.7295,7.2256C2371.4345,1271.1797,2394.5068,1275.5967,2405.2392,1304.0556Z"/><path class="cls-23" d="M2385.4033,1263.8574c16.7207-4.9346,33.0556-4.415,42.6836-13.4072-14.1826-3.6416-31.2324,2.1484-38.8985,2.1484C2389.1406,1256.5752,2388.5175,1262.2285,2385.4033,1263.8574Z"/><path class="cls-29" d="M2383.4043,1408.2998l-3.9112,1.8789c-1.4092.4228-2.5586.5088-3.9863.9785a4.02263,4.02263,0,0,0-2.8008,2.2822.39825.39825,0,0,0-.0176.0557l-16.6132,7.9805c-.7041-.3955-.9668-1.9707-1.0625-3.1778a2.61771,2.61771,0,0,1,.872-2.1679c1.5166-1.3565,4.7715-3.4795,6.5694-7.8868,1.0127-2.4765,5.7851-10.0957,5.7851-10.0957l.0313-.0263c.1523-.0694.9746-.1934,5.3545.9414,2.2636.583,3.4355-4.0108,3.4355-4.0108a4.34082,4.34082,0,0,1,1.4873.7881,4.58572,4.58572,0,0,1,1.582,2.3799c.4707,1.6152,2.6075,4.0137,4.1485,5.5879.9355.9541,1.6504,1.6055,1.6504,1.6055S2386.5664,1406.2627,2383.4043,1408.2998Z"/><path class="cls-30" d="M2378.5478,1395.8398c-.6172,1.1065-1.9658,3.3496-3.1914,4.1475-1.6533,1.0791-7.1172-1.8399-7.1172-1.8399l.0313-.0263c.1523-.0694.9746-.1934,5.3545.9414,2.2636.583,3.4355-4.0108,3.4355-4.0108A4.34082,4.34082,0,0,1,2378.5478,1395.8398Z"/><path class="cls-30" d="M2383.4043,1408.2998l-3.9112,1.8789c-1.4092.4228-2.5586.5088-3.9863.9785a4.02263,4.02263,0,0,0-2.8008,2.2822.39825.39825,0,0,0-.0176.0557l-16.6132,7.9805c-.7041-.3955-.9668-1.9707-1.0625-3.1778.289-.6904,1.582,1.6387,2.0439,1.8867.4629.2481,13.6201-6.371,14.1182-7.2968a8.89518,8.89518,0,0,1,5.9043-3.7793c3.1093-.6739,6.4004-4.3574,7.1992-5.3008.9355.9541,1.6504,1.6055,1.6504,1.6055S2386.5664,1406.2627,2383.4043,1408.2998Z"/><path class="cls-28" d="M2288.9892,1329.4209a7.15577,7.15577,0,0,1,6.2168-4.4883c30.7285-70.5938,31.0586-71.1475,31.5225-71.9063l4.4443,8.8028c.2354-.3848-69.4971,156.3965-69.4971,156.3965l-6.8564-2.7979Z"/><path class="cls-22" d="M2362.2627,1263.54a9.27292,9.27292,0,1,0-11.5293,6.2471A9.27349,9.27349,0,0,0,2362.2627,1263.54Z"/><path class="cls-22" d="M2304.8525,1247.3105a9.273,9.273,0,1,0-11.5303,6.2461A9.27261,9.27261,0,0,0,2304.8525,1247.3105Z"/><polygon class="cls-22" points="2297.911 1253.544 2351.903 1267.094 2352.841 1256.188 2298.85 1242.639 2297.911 1253.544"/><path class="cls-26" d="M2350.6826,1242.7832s-5.085,3.3291-8.6787,3.1797a28.113,28.113,0,0,0-8.1602,1.3476,7.9459,7.9459,0,0,0-5.2402,7.1123s.0215,1.6504,7.5615-.6738c1.6484-.5088,5.6152.4492,6.9619,0,1.3477-.4492,5.4414-4.873,9.0088-4.7578Z"/><path class="cls-21" d="M2323.4873,1236.3457s-5.085,3.3291-8.6778,3.1787a28.10491,28.10491,0,0,0-8.1601,1.3476,7.94779,7.94779,0,0,0-5.2403,7.1124s.1036,2.3398,7.5606-.6739c2.0459-.8271,5.6152.4492,6.9629,0,1.3476-.4492,6.2851-4.2392,9.7051-5.1787Z"/><path class="cls-23" d="M2387.539,1099.8388c7.419,1.3379,10.8613,5.3506,15.5674,16.7813,4.9121,11.9307-1.0361,22.9121-5.7695,21.4814-3.0352-.917-4.0996,4.2813-4.0996,4.2813l-28.8809-25.2295S2368.5673,1098.625,2387.539,1099.8388Z"/><path class="cls-21" d="M2370.625,1168.6377s10.0615,5.6621,8.8769,20c-1.1836,14.3388-14.3428,36.9424-24.3467,42.5527-7.9238,4.4434-30.8437,11.3789-30.8437,11.3789l-.8242-6.2236s18.6494-12.1768,22.6836-16.335C2354.8271,1211.0898,2363.0664,1165.1699,2370.625,1168.6377Z"/><path class="cls-26" d="M2371.6259,1200.8818a37.00029,37.00029,0,0,0,2.3614,8.6602c.875,2.2148,1.8896,4.3271,2.9326,6.5273,3.0556,6.4668,10.2549,9.6504,10.499,22.083.082,4.2813,36.2578-13.8076,36.4678-28.7812a.56481.56481,0,0,1,.0127-.1153c.0625-.7255.1611-2.6689.2715-5.2392.2714-6.2842.6259-16.3076.7548-21.3819.0049-.1191.0049-.2353.0088-.3466.0528-2.1739.1192-3.7461.2032-4.1592-4.8418-20.6035-15.9825-20.6924-19.7862-20.6279-.5029.0078-1.0146.0253-1.5205.0488a6.11145,6.11145,0,0,1-5.2744-2.6104c-2.1289-3.0244-4.5166-8.2324-5.9775-15.3388l-.8682.3691-14.6025,6.207s1.3496,4.7237,2.3066,9.2364a47.16679,47.16679,0,0,1,.8721,5.2929,3.174,3.174,0,0,1-2.0205,3.2432h0l-.0049.0146C2378.0048,1164.5439,2369.2939,1184.4951,2371.6259,1200.8818Z"/><path class="cls-21" d="M2373.9873,1209.542c.875,2.2148,1.8896,4.3271,2.9326,6.5273,3.0556,6.4668,10.2549,9.6504,10.499,22.083.2188.0225.4434.042.6699.0615,26.708,2.087,35.8106-28.958,35.8106-28.958.0625-.7255.1611-2.6689.2715-5.2392l-48.1954.0791A48.66434,48.66434,0,0,0,2373.9873,1209.542Z"/><path class="cls-5" d="M2367.208,1194.8301c.1338.3994.2851.7968.4511,1.1972,4.6289,11.0362,14.8614,67.8301,14.8614,67.8301.125-.0713,41.7939,2.7305,58.3105-20.0537.8057,2.4082-3.1015-11.4805-9.1885-30.1406-4.5693-14.002-6.8984-23.8789-6.7168-31.0284.0049-.1191.0049-.2353.0088-.3466-1.0644-.8516-2.0986-1.6387-3.0547-2.3916-3.0664-2.417-5.3496-4.4678-5.4033-6.9932a19.37591,19.37591,0,0,1,.1895-3.0264c.0654-.4785.1445-.957.2353-1.4316a41.12742,41.12742,0,0,1,3.2412-9.5137c-5.2509-2.3623-14.791-1.4306-14.791-1.4306a32.47824,32.47824,0,0,1-11.1924,12.7744c-2.1328,1.3349-9.7509,4.6787-13.5,1.1982-2.4804-2.3027-2.5527-7.0166-2.3974-7.5098l.0049-.0146c-8.6387,3.0205-11.7871,5.7119-11.7871,5.7119C2371.4843,1173.1816,2363.6337,1184.1592,2367.208,1194.8301Z"/><path class="cls-21" d="M2377.1064,1146.1777s1.3516,4.7217,2.3066,9.2363c8.4756-2.0254,11.3536-10.7461,12.2969-15.4433Z"/><path class="cls-26" d="M2375.1552,1151.0508s20.2403-3.8916,17.6231-16.459c-2.6182-12.5674-1.7686-21.5332-14.8018-19.5801-13.0342,1.9541-14.5381,7.2705-14.6845,11.6777C2363.1455,1131.0967,2369.8232,1151.7392,2375.1552,1151.0508Z"/><path class="cls-23" d="M2362.4287,1119.5781c2.3271-4.4326,4.8564-4.0967,6.415-3.2373,9.7559-8.3701,18.7363-.8965,18.7363-.8965a24.522,24.522,0,0,0,10.8203,12.5352s-3.2011,3.041-12.1328,2.6367a14.71174,14.71174,0,0,1-7.8574-3.2998,48.08561,48.08561,0,0,0,10.1699,8.1963c-11.1045-2.5596-18.1181-15.7891-18.8349-17.1934-1,1.3643-2.9239,4.2744-3.1709,6.7832-.335,3.4102.5918,10.0918-1.375,10.2695C2365.1992,1135.372,2358.9404,1126.2246,2362.4287,1119.5781Z"/><path class="cls-26" d="M2350.6826,1242.7832l1.4531,6.208s33.9609-4.6377,45.0625-11.0986c11.1006-6.461,27.9082-44.4424,29.2344-60.5q.1083-1.2774.1347-2.4385c.4043-13.8662-6.4248-16.0225-6.4248-16.0225-2.7334-1.2539-6.1308,3.4326-9.7275,10.7549-7.5479,15.3574-15.9824,42.3154-20.9941,50.2969C2385.5712,1226.1123,2350.6826,1242.7832,2350.6826,1242.7832Z"/><path class="cls-5" d="M2410.415,1169.6865c9.3125-2.1953,16.1523,5.2676,16.1523,5.2676.4043-13.8662-6.4248-16.0225-6.4248-16.0225C2417.4091,1157.6777,2414.0117,1162.3642,2410.415,1169.6865Z"/><path class="cls-5" d="M2366.4795,1169.6611s-3.4073,3.1602-4.712,10.3477a8.708,8.708,0,0,1,7.3848,4.9492S2371.0097,1170.4463,2366.4795,1169.6611Z"/><path class="cls-23" d="M2386.1406,1104.3428s11.1885-13.8633,25.2959-9.9717c14.1064,3.8916,22.1445,20.1943,28.7002,17.5117,11.0078-4.5039,14.0635,10.2715,9.6679,21.0234-3.8378,9.3897-20.4306,12.9629-30.4746,2.6807-7.3203-7.4941-17.3798-39.5137-29.7841-28.8115C2377.1416,1117.4775,2386.1406,1104.3428,2386.1406,1104.3428Z"/><path class="cls-32" d="M2720.2597,1495.374v1.0596a3.08725,3.08725,0,0,1-3.0791,3.08H3.0903A3.09622,3.09622,0,0,1,0,1496.4336v-1.0596a3.0963,3.0963,0,0,1,3.0903-3.0801H2717.1806A3.08733,3.08733,0,0,1,2720.2597,1495.374Z"/><polygon class="cls-18" points="835.542 1317.536 844.994 1310.214 827.933 1310.201 835.542 1317.536"/><polygon class="cls-18" points="1301.9 1373.476 1308.39 1368.448 1286.862 1368.448 1301.9 1373.476"/></g></g></svg>