<svg width="27" height="21" viewBox="0 0 27 21" fill="none" xmlns="http://www.w3.org/2000/svg">
<path d="M25.7783 13.791H0.799464C0.355317 13.791 0 13.4281 0 12.9744V11.7949H26.5955V12.9744C26.5955 13.4281 26.2224 13.791 25.7783 13.791Z" fill="#3F3F3F"/>
<path d="M22.3672 0H4.22827C3.81966 0 3.46434 0.272196 3.35775 0.653269L0 11.7951H26.5955L23.2377 0.653269C23.1134 0.272196 22.7581 0 22.3672 0ZM5.50742 1.17951H21.0881L23.9306 10.6156H2.66488L5.50742 1.17951Z" fill="#3F3F3F"/>
<path d="M20.8766 4.80824L20.166 2.44922H16.3818L16.7727 4.80824H20.8766Z" fill="#3F3F3F"/>
<path d="M16.9678 6.08008L17.5007 9.34642H22.2442L21.2671 6.08008H16.9678Z" fill="#3F3F3F"/>
<path d="M15.5087 4.80824L15.1178 2.44922H11.458L11.085 4.80824H15.5087Z" fill="#3F3F3F"/>
<path d="M13.9548 21C14.5245 21 14.979 20.5249 14.9539 19.9559L14.6888 13.9559C14.6652 13.4213 14.2249 13 13.6898 13H12.2961C11.7602 13 11.3195 13.4224 11.297 13.9579L11.0439 19.9579C11.02 20.5262 11.4742 21 12.0431 21H13.9548Z" fill="#3F3F3F"/>
<path d="M10.8904 6.08008L10.3574 9.34642H16.2379L15.7049 6.08008H10.8904Z" fill="#3F3F3F"/>
<path d="M5.33083 6.08008L4.33594 9.34642H9.09719L9.63016 6.08008H5.33083Z" fill="#3F3F3F"/>
<path d="M9.82578 4.80824L10.1989 2.44922H6.41474L5.7041 4.80824H9.82578Z" fill="#3F3F3F"/>
</svg>
