<svg width="27" height="31" viewBox="0 0 27 31" fill="none" xmlns="http://www.w3.org/2000/svg">
<path d="M8.70862 9.19566C8.53097 8.59683 8.47767 7.94356 8.58426 7.254C8.88628 5.33049 10.4497 3.82434 12.3684 3.62473C14.9089 3.37068 17.0586 5.40307 17.0586 7.96171C17.0586 8.37907 17.0053 8.79644 16.8809 9.17751H19.6346L20.4341 8.36093C20.665 8.12502 20.665 7.7621 20.4341 7.52619L18.4798 5.5301V2.75371C18.4798 2.42707 18.2311 2.17302 17.9113 2.17302H15.1576L13.2034 0.176927C12.9724 -0.0589756 12.6171 -0.0589756 12.3862 0.176927L10.4319 2.17302H7.69597C7.37618 2.17302 7.12746 2.42707 7.12746 2.75371V5.56639L5.17322 7.56249C4.94226 7.79839 4.94226 8.16132 5.17322 8.39722L5.97268 9.2138H8.70862V9.19566Z" fill="#3F3F3F"/>
<path d="M25.7783 23.791H0.799464C0.355317 23.791 0 23.4281 0 22.9744V21.7949H26.5955V22.9744C26.5955 23.4281 26.2224 23.791 25.7783 23.791Z" fill="#3F3F3F"/>
<path d="M22.3672 10H4.22827C3.81966 10 3.46434 10.2722 3.35775 10.6533L0 21.7951H26.5955L23.2377 10.6533C23.1134 10.2722 22.7581 10 22.3672 10ZM5.50742 11.1795H21.0881L23.9306 20.6156H2.66488L5.50742 11.1795Z" fill="#3F3F3F"/>
<path d="M20.8766 14.8082L20.166 12.4492H16.3818L16.7727 14.8082H20.8766Z" fill="#3F3F3F"/>
<path d="M16.9678 16.0801L17.5007 19.3464H22.2442L21.2671 16.0801H16.9678Z" fill="#3F3F3F"/>
<path d="M15.5087 14.8082L15.1178 12.4492H11.458L11.085 14.8082H15.5087Z" fill="#3F3F3F"/>
<path d="M13.9548 31C14.5245 31 14.979 30.5249 14.9539 29.9559L14.6888 23.9559C14.6652 23.4213 14.2249 23 13.6898 23H12.2961C11.7602 23 11.3195 23.4224 11.297 23.9579L11.0439 29.9579C11.02 30.5262 11.4742 31 12.0431 31H13.9548Z" fill="#3F3F3F"/>
<path d="M10.8904 16.0801L10.3574 19.3464H16.2379L15.7049 16.0801H10.8904Z" fill="#3F3F3F"/>
<path d="M5.33083 16.0801L4.33594 19.3464H9.09719L9.63016 16.0801H5.33083Z" fill="#3F3F3F"/>
<path d="M9.82578 14.8082L10.1989 12.4492H6.41474L5.7041 14.8082H9.82578Z" fill="#3F3F3F"/>
</svg>
